<?xml version="1.0" encoding="UTF-8"?>
<svg width="14px" height="14px" viewBox="0 0 14 14" version="1.1" xmlns="http://www.w3.org/2000/svg" xmlns:xlink="http://www.w3.org/1999/xlink">
    <!-- Generator: Sketch 59 (86127) - https://sketch.com -->
    <title>jia</title>
    <desc>Created with Sketch.</desc>
    <g id="0526-支付钱包UI--桌面端" stroke="none" stroke-width="1" fill="none" fill-rule="evenodd">
        <g id="桌面端-转账-地址簿" transform="translate(-1379.000000, -109.000000)" fill="#333333" fill-rule="nonzero">
            <g id="jia" transform="translate(1379.000000, 109.000000)">
                <path d="M13.3533277,6.39098487 L7.56604205,6.39098487 L7.56604205,0.603699182 C7.56599234,0.276408301 7.30065672,0.0111129795 6.97336584,0.0111129795 C6.64607496,0.0111129795 6.38073934,0.276408301 6.38068963,0.603699182 L6.38068963,6.39098487 L0.593305166,6.39098487 C0.265979129,6.39098487 0.000628947266,6.65633505 0.000628947266,6.98366108 C0.000628947266,7.31098712 0.265979129,7.5763373 0.593305166,7.5763373 L6.38068963,7.5763373 L6.38068963,13.3638205 C6.38073934,13.6911114 6.64607496,13.9564067 6.97336584,13.9564067 C7.30065672,13.9564067 7.56599234,13.6911114 7.56604205,13.3638205 L7.56604205,7.5763373 L13.3533277,7.5763373 C13.6806538,7.5763373 13.946004,7.31098712 13.946004,6.98366108 C13.946004,6.65633505 13.6806538,6.39098487 13.3533277,6.39098487 Z" id="路径"></path>
            </g>
        </g>
    </g>
</svg>