<?xml version="1.0" encoding="UTF-8"?>
<svg width="13px" height="11px" viewBox="0 0 13 11" version="1.1" xmlns="http://www.w3.org/2000/svg" xmlns:xlink="http://www.w3.org/1999/xlink">
    <!-- Generator: Sketch 59 (86127) - https://sketch.com -->
    <title>编组 13</title>
    <desc>Created with Sketch.</desc>
    <g id="页面-1" stroke="none" stroke-width="1" fill="none" fill-rule="evenodd">
        <g id="桌面端-存款" transform="translate(-548.000000, -321.000000)" fill-rule="nonzero">
            <g id="编组-13" transform="translate(548.000000, 321.000000)">
                <g id="编组-12" transform="translate(1.000000, 0.000000)">
                    <g id="xiane-2备份" fill="#7038FD">
                        <path d="M0,5.14285714 C0,7.98317871 2.30253557,10.2857143 5.14285714,10.2857143 C7.98317871,10.2857143 10.2857143,7.98317871 10.2857143,5.14285714 C10.2857143,2.30253557 7.98317871,0 5.14285714,0 C2.30253557,0 0,2.30253557 0,5.14285714 Z" id="路径"></path>
                    </g>
                    <g id="jinbi" transform="translate(1.558128, 2.225324)" fill="#FBFBFE">
                        <path d="M5.54578195,4.28245029 C5.60913598,4.28245029 5.66224157,4.29549377 5.70509872,4.32158073 C5.74795586,4.34766769 5.78242791,4.38120806 5.80851487,4.42220185 C5.83460182,4.46319564 5.85323536,4.50977949 5.86441549,4.5619534 C5.87559561,4.61412731 5.88118567,4.66630123 5.88118567,4.71847514 L5.88118567,5.10977949 C5.88118567,5.2066739 5.84857698,5.29145651 5.78335959,5.36412731 C5.7181422,5.43679812 5.62590617,5.47313352 5.50665151,5.47313352 L1.68304903,5.47313352 C1.60106145,5.47313352 1.52559561,5.44331986 1.45665151,5.38369253 C1.38770741,5.3240652 1.35323536,5.24394098 1.35323536,5.14331986 L1.35323536,4.6793447 C1.35323536,4.56381675 1.38957077,4.4687857 1.46224157,4.39425154 C1.53491238,4.31971737 1.6234217,4.28245029 1.72776953,4.28245029 L5.54578195,4.28245029 L5.54578195,4.28245029 Z M5.16826929,2.4573719 C5.21485314,2.4815955 5.25398357,2.51234084 5.28566059,2.54960792 C5.31733761,2.586875 5.33969786,2.62973215 5.35274134,2.67817935 C5.36578482,2.72662656 5.37230656,2.77321041 5.37230656,2.8179309 L5.37230656,3.13097438 C5.37230656,3.23904892 5.34342457,3.32942159 5.28566059,3.40209239 C5.22789662,3.4747632 5.12820718,3.5110986 4.98659227,3.5110986 L1.20212022,3.5110986 C1.1014991,3.5110986 1.01671649,3.4747632 0.947772394,3.40209239 C0.878828295,3.32942159 0.844356245,3.24836569 0.844356245,3.15892469 L0.844356245,2.76762034 C0.844356245,2.67072593 0.876964941,2.58873836 0.942182332,2.52165761 C1.00739972,2.45457687 1.08845562,2.42103649 1.18535003,2.42103649 L4.99777239,2.42103649 C5.06485314,2.42103649 5.12168544,2.43314829 5.16826929,2.4573719 Z M6.29832285,0.607855027 C6.36913031,0.691705958 6.40453403,0.787668691 6.40453403,0.895743225 L6.40453403,1.23673701 C6.40453403,1.35599167 6.37006198,1.45940782 6.30111788,1.54698546 C6.23217378,1.6345631 6.14366447,1.67835192 6.03558993,1.67835192 L2.22875764,1.67835192 C2.13186323,1.67835192 2.04801229,1.64387987 1.97720484,1.57493577 C1.90639739,1.50599167 1.87099366,1.42307242 1.87099366,1.32617801 L1.87099366,0.845432666 C1.87099366,0.74108484 1.90267068,0.654438878 1.96602472,0.585494778 C2.02937875,0.516550679 2.10950298,0.482078629 2.20639739,0.482078629 L6.03558993,0.482078629 C6.13993776,0.482078629 6.2275154,0.524004095 6.29832285,0.607855027 Z" id="形状"></path>
                    </g>
                </g>
            </g>
        </g>
    </g>
</svg>