<?xml version="1.0" encoding="UTF-8"?>
<svg width="24px" height="24px" viewBox="0 0 24 24" version="1.1" xmlns="http://www.w3.org/2000/svg" xmlns:xlink="http://www.w3.org/1999/xlink">
    <!-- Generator: Sketch 59 (86127) - https://sketch.com -->
    <title>fanhui 2</title>
    <desc>Created with Sketch.</desc>
    <g id="页面-1" stroke="none" stroke-width="1" fill="none" fill-rule="evenodd">
        <g id="映射-BTC" transform="translate(-343.000000, -136.000000)" fill="#7038FD" fill-rule="nonzero">
            <g id="fanhui-2" transform="translate(343.000000, 136.000000)">
                <g id="fanhui">
                    <path d="M23.98125,12 C23.98125,18.61875 18.6160714,23.98125 12,23.98125 C5.38392857,23.98125 0.01875,18.61875 0.01875,12 C0.01875,5.38125 5.38125,0.01875 12,0.01875 C18.61875,0.01875 23.98125,5.38125 23.98125,12 Z M11.9946429,1.71428571 C6.31875,1.71428571 1.71428571,6.31607143 1.71428571,11.9946429 C1.71428571,17.6732143 6.31607143,22.275 11.9946429,22.275 C17.6732143,22.275 22.275,17.6732143 22.275,11.9946429 C22.275,6.31607143 17.6732143,1.71428571 11.9946429,1.71428571 Z" id="形状"></path>
                    <polygon id="路径" points="9.24375 11.1964286 17.1455357 11.1964286 17.1455357 12.9133929 9.24375 12.9133929"></polygon>
                    <path d="M18.9776786,12.0026786 L12.9080357,18.0723214 L6.83839286,12.0026786 L12.9080357,5.93303571 L18.9776786,12.0026786 Z M14.1294643,7.15446429 L9.27053571,12.0107143 L14.11875,16.8589286 L18.975,12.0026786 L14.1294643,7.15446429 L14.1294643,7.15446429 Z" id="形状"></path>
                </g>
            </g>
        </g>
    </g>
</svg>