<?xml version="1.0" encoding="UTF-8"?>
<svg width="196px" height="114px" viewBox="0 0 196 114" version="1.1" xmlns="http://www.w3.org/2000/svg" xmlns:xlink="http://www.w3.org/1999/xlink">
    <!-- Generator: Sketch 59 (86127) - https://sketch.com -->
    <title>编组 9</title>
    <desc>Created with Sketch.</desc>
    <defs>
        <linearGradient x1="50%" y1="0%" x2="50%" y2="100%" id="linearGradient-1">
            <stop stop-color="#927FE3" offset="0%"></stop>
            <stop stop-color="#F8F8F8" stop-opacity="0" offset="100%"></stop>
        </linearGradient>
        <linearGradient x1="50%" y1="0%" x2="50%" y2="100%" id="linearGradient-2">
            <stop stop-color="#EEEDF4" offset="0%"></stop>
            <stop stop-color="#AA9CE8" offset="100%"></stop>
        </linearGradient>
        <linearGradient x1="50%" y1="32.7633829%" x2="100%" y2="85.3476174%" id="linearGradient-3">
            <stop stop-color="#EEEDF4" offset="0%"></stop>
            <stop stop-color="#AA9CE8" offset="100%"></stop>
        </linearGradient>
        <linearGradient x1="50%" y1="0%" x2="50%" y2="100%" id="linearGradient-4">
            <stop stop-color="#927FE3" offset="0%"></stop>
            <stop stop-color="#F8F8F8" stop-opacity="0" offset="100%"></stop>
        </linearGradient>
        <linearGradient x1="50%" y1="0%" x2="50%" y2="100%" id="linearGradient-5">
            <stop stop-color="#927FE3" offset="0%"></stop>
            <stop stop-color="#F8F8F8" stop-opacity="0" offset="100%"></stop>
        </linearGradient>
        <linearGradient x1="50%" y1="0%" x2="50%" y2="100%" id="linearGradient-6">
            <stop stop-color="#B8AAF6" offset="0%"></stop>
            <stop stop-color="#FDFDFE" offset="100%"></stop>
        </linearGradient>
        <path d="M5.81508668,4.33562264 C5.81508668,4.33562264 6.69290435,9.4239317 3.61975258,15.2371838 C0.546600813,21.0504359 -2.54801385,25.7880725 4.41789581,27.7075858 C11.3838055,29.6270991 14.7723962,24.8673707 12.6766098,19.2299034 C10.5808235,13.5924361 15.6043781,5.13266326 9.95803231,1.59754525 C4.31168653,-1.93757277 5.81508668,4.33562264 5.81508668,4.33562264 Z" id="path-7"></path>
        <path d="M1.25890148,5.71102433 C-0.165692209,10.2251913 0.499978439,12.8603542 3.25591342,13.6165131 C7.38981588,14.7507515 8.7296994,11.7420833 7.48596002,8.4109099 C6.24222063,5.07973645 9.0208973,0.965754227 6.16550018,0.19837915 C4.2619021,-0.313204235 2.6263692,1.52434416 1.25890148,5.71102433 Z" id="path-9"></path>
        <linearGradient x1="50%" y1="0%" x2="50%" y2="100%" id="linearGradient-11">
            <stop stop-color="#B8AAF6" offset="0%"></stop>
            <stop stop-color="#FDFDFE" offset="100%"></stop>
        </linearGradient>
        <path d="M1.25890148,5.71102433 C-0.165692209,10.2251913 0.499978439,12.8603542 3.25591342,13.6165131 C7.38981588,14.7507515 8.7296994,11.7420833 7.48596002,8.4109099 C6.24222063,5.07973645 9.0208973,0.965754227 6.16550018,0.19837915 C4.2619021,-0.313204235 2.6263692,1.52434416 1.25890148,5.71102433 Z" id="path-12"></path>
        <linearGradient x1="50%" y1="0%" x2="50%" y2="100%" id="linearGradient-14">
            <stop stop-color="#FFF5A5" offset="0%"></stop>
            <stop stop-color="#FFE984" offset="100%"></stop>
        </linearGradient>
        <linearGradient x1="89.1130507%" y1="24.7188018%" x2="53.4440936%" y2="69.5288087%" id="linearGradient-15">
            <stop stop-color="#FFF27C" offset="0%"></stop>
            <stop stop-color="#EECA26" offset="100%"></stop>
        </linearGradient>
        <linearGradient x1="50.0469381%" y1="1.26491722%" x2="50%" y2="100%" id="linearGradient-16">
            <stop stop-color="#EDECF3" offset="0%"></stop>
            <stop stop-color="#9F8CED" stop-opacity="0" offset="100%"></stop>
        </linearGradient>
    </defs>
    <g id="页面-1" stroke="none" stroke-width="1" fill="none" fill-rule="evenodd">
        <g id="桌面端-存款订单-空白页" transform="translate(-734.000000, -421.000000)">
            <g id="编组-9" transform="translate(734.000000, 421.000000)">
                <g id="编组-8">
                    <g id="编组-5">
                        <path d="M100.950811,54.075098 C142.474028,55.540301 174.157091,75.5152684 196,114 L0,114 C25.7773228,72.5848624 59.427593,52.609895 100.950811,54.075098 Z" id="路径-6" fill="url(#linearGradient-1)" opacity="0.262137277"></path>
                        <g id="编组-7" transform="translate(71.000000, 28.000000)">
                            <g id="编组-6">
                                <polygon id="路径-18" fill="#AC9DF2" points="7.51681207 5.55596446 32.8615838 -4.16555679e-13 57.2244361 5.55596446 32.8615838 13.5554162"></polygon>
                                <polygon id="路径" fill="#B8AAF6" points="7.51681207 5.55596446 32.8615838 1.03028697e-13 32.8615838 37.6211218"></polygon>
                                <polygon id="路径" fill="#9F8CED" points="7.51681207 20.794163 7.51681207 38.6316485 32.3706241 47.0063726 32.8615838 13.5554162 7.51681207 5.6289434"></polygon>
                                <polygon id="路径" fill="#B8AAF6" points="32.8615838 13.5554162 32.3706241 47.0063726 57.2244361 38.8311046 57.2244361 21.6097572 57.2244361 5.6289434"></polygon>
                                <polyline id="路径" fill="url(#linearGradient-2)" points="32.8615838 13.5554162 24.3311753 26.2811685 8.8817842e-14 15.8451545 7.51681207 5.55596446"></polyline>
                                <polyline id="路径" fill="url(#linearGradient-3)" points="57.2244361 5.55596446 66.3739588 16.0235681 42.0440884 25.2323907 32.8615838 13.5554162"></polyline>
                            </g>
                        </g>
                        <path d="M46.5,29 C50.2125886,29 53.2951326,31.6975417 53.894538,35.2395314 C54.4015681,35.0833804 54.9410468,35 55.5,35 C58.5375661,35 61,37.4624339 61,40.5 C61,43.5375661 58.5375661,46 55.5,46 C53.2963065,46 51.3953173,44.7039687 50.5176713,42.832545 C49.3572672,43.5721252 47.9786014,44 46.5,44 C44.6779861,44 43.0077196,43.3502925 41.7082396,42.2699168 C40.9723003,44.4390725 38.9184373,46 36.5,46 C33.4624339,46 31,43.5375661 31,40.5 C31,37.4624339 33.4624339,35 36.5,35 C37.4210266,35 38.289177,35.2263901 39.0518397,35.6265589 C39.4827238,31.8961897 42.6531412,29 46.5,29 Z" id="形状结合" fill="url(#linearGradient-4)" opacity="0.262137277"></path>
                        <path d="M146.5,14 C149.69482,14 152.477966,15.7625828 153.930068,18.3683777 C154.574501,18.1296139 155.272114,18 156,18 C159.313708,18 162,20.6862915 162,24 C162,27.3137085 159.313708,30 156,30 C154.600838,30 153.313534,29.5210829 152.293072,28.7182341 C150.775861,30.1342815 148.73903,31 146.5,31 C144.261466,31 142.225042,30.1346651 140.706987,28.7202543 C139.609146,30.108797 137.908649,31 136,31 C132.686292,31 130,28.3137085 130,25 C130,21.6862915 132.686292,19 136,19 C136.901798,19 137.757128,19.1989495 138.524495,19.5553516 C139.721595,16.3122589 142.840769,14 146.5,14 Z" id="形状结合备份-4" fill="url(#linearGradient-5)" opacity="0.262137277" transform="translate(146.000000, 22.500000) rotate(15.000000) translate(-146.000000, -22.500000) "></path>
                        <g id="编组-4" transform="translate(39.000000, 62.000000)">
                            <rect id="矩形" fill="url(#linearGradient-6)" x="6.02205117" y="26.6865288" width="1.45384615" height="8.72307692" rx="0.726923077"></rect>
                            <g id="编组-3">
                                <mask id="mask-8" fill="white">
                                    <use xlink:href="#path-7"></use>
                                </mask>
                                <use id="蒙版" fill="#927FE3" xlink:href="#path-7"></use>
                                <path d="M6.74897424,-1.45384615 C10.189515,5.48741605 10.6554114,11.6704864 8.1466634,17.0953649 C4.38354148,25.2326826 3.24779549,29.0634365 -1.10496497,26.6865288 C-4.00680528,25.1019236 -3.40533826,19.3830053 0.699436086,9.52977402 L6.74897424,-1.45384615 Z" id="路径-59" fill="#B8AAF6" mask="url(#mask-8)"></path>
                            </g>
                        </g>
                        <g id="编组-30" transform="translate(61.000000, 52.000000)">
                            <rect id="矩形复制-22" fill="#B8AAF6" x="3.70274385" y="12.8029333" width="1.05734266" height="5.28671329" rx="0.528671329"></rect>
                            <g id="编组">
                                <mask id="mask-10" fill="white">
                                    <use xlink:href="#path-9"></use>
                                </mask>
                                <use id="蒙版" fill="#B2A4EF" xlink:href="#path-9"></use>
                                <path d="M6.46806972,-0.373766276 C5.05827951,0.603955795 4.17716063,2.18960654 3.82471308,4.38318595 C3.29604175,7.67355508 5.09298192,14.7983232 1.71002776,13.7409806 C-0.545275008,13.0360855 -2.17262692,9.67643403 -3.17202797,3.66202629 C-1.31171822,-0.0219412439 0.157533069,-2.08961581 1.23572589,-2.54099739 C2.31391872,-2.99237898 4.05803333,-2.2699686 6.46806972,-0.373766276 Z" id="路径-56" fill="#CDC3F5" mask="url(#mask-10)"></path>
                            </g>
                        </g>
                        <g id="编组-30备份" transform="translate(142.000000, 71.000000)">
                            <rect id="矩形复制-22" fill="url(#linearGradient-11)" x="3.70274385" y="12.8029333" width="1.05734266" height="5.28671329" rx="0.528671329"></rect>
                            <g id="编组">
                                <mask id="mask-13" fill="white">
                                    <use xlink:href="#path-12"></use>
                                </mask>
                                <use id="蒙版" fill="#927FE3" xlink:href="#path-12"></use>
                                <path d="M6.46806972,-0.373766276 C5.05827951,0.603955795 4.17716063,2.18960654 3.82471308,4.38318595 C3.29604175,7.67355508 5.09298192,14.7983232 1.71002776,13.7409806 C-0.545275008,13.0360855 -2.17262692,9.67643403 -3.17202797,3.66202629 C-1.31171822,-0.0219412439 0.157533069,-2.08961581 1.23572589,-2.54099739 C2.31391872,-2.99237898 4.05803333,-2.2699686 6.46806972,-0.373766276 Z" id="路径-56" fill="#B8AAF6" mask="url(#mask-13)"></path>
                            </g>
                        </g>
                        <path d="M95.8356138,36.5 C106.512633,34.4018823 113.763047,30.9151292 117.586856,26.0397409 C121.410664,21.1643526 123.322568,16.547309 123.322568,12.18861" id="路径-10" stroke="#F9DA4B" stroke-width="0.5" stroke-dasharray="3"></path>
                        <g id="fasong" transform="translate(111.000000, 0.000000)" fill-rule="nonzero">
                            <polygon id="路径" fill="#E6C217" points="15.8850167 15.6147879 10.1841518 19.4558594 10.1841518 14.2029576"></polygon>
                            <polygon id="路径" fill="url(#linearGradient-14)" points="10.6769531 14.464481 21.5151786 17.381808 25 0.0195870536 20.5439174 2.80491071 0 15.6436105"></polygon>
                            <polygon id="路径" fill="url(#linearGradient-15)" points="10.6769531 14.464481 25 0.0195870536 20.5439174 2.80491071 0 15.6436105"></polygon>
                        </g>
                    </g>
                    <path d="M103.142673,73.9393282 C103.140519,74.0773826 103.250688,74.191044 103.388742,74.1932594 C103.526796,74.1953522 103.640458,74.0851833 103.642612,73.9471289 C103.88323,52.3540898 103.95752,41.5568476 103.865484,41.5554023 C103.773448,41.5539755 103.532511,52.3486175 103.142673,73.9393282 Z" id="路径-11" fill="url(#linearGradient-16)" fill-rule="nonzero"></path>
                </g>
            </g>
        </g>
    </g>
</svg>