<?xml version="1.0" encoding="UTF-8"?>
<svg width="41px" height="41px" viewBox="0 0 41 41" version="1.1" xmlns="http://www.w3.org/2000/svg" xmlns:xlink="http://www.w3.org/1999/xlink">
    <!-- Generator: Sketch 59 (86127) - https://sketch.com -->
    <title>编组 3</title>
    <desc>Created with Sketch.</desc>
    <defs>
        <linearGradient x1="87.3859636%" y1="8.50670794%" x2="13.2218582%" y2="100%" id="linearGradient-1">
            <stop stop-color="#FFA957" offset="0%"></stop>
            <stop stop-color="#FF7156" offset="100%"></stop>
        </linearGradient>
    </defs>
    <g id="0526-支付钱包UI--桌面端" stroke="none" stroke-width="1" fill="none" fill-rule="evenodd">
        <g id="画板" transform="translate(-1619.000000, -8752.000000)">
            <g id="编组-3" transform="translate(1619.000000, 8752.000000)">
                <rect id="矩形" fill="url(#linearGradient-1)" x="0" y="0" width="41" height="41"></rect>
                <path d="M25.2130885,11.1019196 L23.3317934,10.6240681 L22.5453348,13.678545 L21.1582675,13.3277014 L21.9447261,10.2732246 L20.0495001,9.79222931 L19.2728564,12.8102386 L15.6065156,11.9318721 L15.0904416,13.9363333 L16.7023019,14.345022 C16.8976574,14.394565 17.0651733,14.5191713 17.1679646,14.6914043 C17.270756,14.8636372 17.3003942,15.069374 17.2503534,15.2633142 L15.1629453,23.3720134 C15.0703685,23.731534 14.7018788,23.9485348 14.3397599,23.8567812 L13.0179142,23.521342 L12.099746,25.5544114 L15.7800177,26.4887367 L15.0074899,29.4885122 L16.8754874,29.9625912 L17.6480152,26.9628157 L19.0350825,27.3149168 L18.2625547,30.3146922 L20.1438498,30.7922293 L20.9128949,27.8056577 C24.1423143,28.6114033 26.7299658,27.9895676 27.4847634,25.0576974 C28.2256303,22.1805285 26.5779931,21.5366866 25.7643061,20.981813 C26.9110666,20.6193375 27.606025,20.1644355 27.9805743,18.7076173 C28.6824981,15.9810346 26.1265076,14.6018672 24.4237804,14.1696002 L25.2130885,11.1019196 Z M23.8095575,24.110797 C23.3602883,25.8562123 21.0414385,25.5434082 18.1985996,24.8219154 L19.2307473,20.8129931 C22.4991097,21.6423169 24.2721243,22.3106802 23.8095575,24.110797 Z M24.4475261,18.1668906 C24.125534,19.4171638 23.1348621,19.912306 19.6879318,19.0373977 L20.6311122,15.3711452 C23.0759727,15.9926665 24.8420219,16.628649 24.4475261,18.1665762 L24.4475261,18.1668906 Z" id="形状备份" fill="#FFFFFF" fill-rule="nonzero"></path>
            </g>
        </g>
    </g>
</svg>