<?xml version="1.0" encoding="UTF-8"?>
<svg width="10px" height="11px" viewBox="0 0 10 11" version="1.1" xmlns="http://www.w3.org/2000/svg" xmlns:xlink="http://www.w3.org/1999/xlink">
    <!-- Generator: Sketch 59 (86127) - https://sketch.com -->
    <title>meiyuan8 2</title>
    <desc>Created with Sketch.</desc>
    <g id="页面-1" stroke="none" stroke-width="1" fill="none" fill-rule="evenodd">
        <g id="数字银行首页-已登录" transform="translate(-448.000000, -250.000000)" fill="#FFFFFF" fill-rule="nonzero">
            <g id="meiyuan8-2" transform="translate(448.000000, 250.615029)">
                <g id="meiyuan8">
                    <path d="M4.99536956,0.0017775632 C2.23974061,0.0017775632 0.00540949789,2.23604284 0.00540949789,4.99173762 C0.00540949789,7.74743241 2.23967477,9.98169768 4.99536956,9.98169768 C7.75106434,9.98169768 9.98532962,7.74743241 9.98532962,4.99173762 C9.98532962,2.23610867 7.75106434,0.0017775632 4.99536956,0.0017775632 Z M5.41355776,7.75883295 L5.41355776,8.69267907 L4.51411078,8.69267907 L4.51411078,7.83333699 C3.90684252,7.80469847 3.31676835,7.63282347 2.97301835,7.44377633 L3.24228625,6.38393171 C3.62042442,6.59021682 4.15891634,6.78496972 4.74901246,6.78496972 C5.27603801,6.78496972 5.62557058,6.5786846 5.62557058,6.22354503 C5.62557058,5.879806 5.33340283,5.66212035 4.65738018,5.43294637 C3.68918978,5.1063685 3.02461157,4.65378116 3.02461157,3.77155021 C3.02461157,2.96376843 3.58603625,2.33930609 4.5542486,2.15598666 L4.5542486,1.29664458 L5.44227309,1.29664458 L5.44227309,2.09297094 C6.03810788,2.11015406 6.45056838,2.24765186 6.76566889,2.39085542 L6.49640098,3.41632286 C6.26723797,3.30746357 5.84327818,3.09553854 5.19021024,3.09553854 C4.60014703,3.09553854 4.41104503,3.35906777 4.41104503,3.61113062 C4.41104503,3.90329837 4.72611262,4.10382286 5.51103845,4.37881847 C6.58807716,4.76267337 7.01776466,5.26108234 7.01776466,6.08604723 C7.01776466,6.893829 6.45633998,7.58708962 5.41367846,7.75892073 L5.41355776,7.75883295 Z" id="形状"></path>
                </g>
            </g>
        </g>
    </g>
</svg>