<?xml version="1.0" encoding="UTF-8"?>
<svg width="24px" height="24px" viewBox="0 0 24 24" version="1.1" xmlns="http://www.w3.org/2000/svg" xmlns:xlink="http://www.w3.org/1999/xlink">
    <!-- Generator: Sketch 54.1 (76490) - https://sketchapp.com -->
    <title>编组 2备份</title>
    <desc>Created with Sketch.</desc>
    <g id="0617-闪兑变更点" stroke="none" stroke-width="1" fill="none" fill-rule="evenodd">
        <g id="市场-兑换2.0变更点0616" transform="translate(-830.000000, -291.000000)">
            <g id="编组-2备份" transform="translate(830.000000, 291.000000)">
                <circle id="椭圆形" fill="#7038FD" opacity="0.08" cx="11.7296312" cy="11.7296312" r="11.7296312"></circle>
                <g id="编组" transform="translate(3.704094, 4.938792)" fill="#2E147B" fill-rule="nonzero">
                    <path d="M15.374812,2.80014079 L14.1801575,4.04560629 L14.134058,4.04560629 C12.61005,2.61435237 10.5352727,1.73383127 8.24895288,1.73383127 C5.96263361,1.73383127 3.88785677,2.61435196 2.36384879,4.04560528 L-1.31528469e-13,4.04560629 C1.86798783,1.591271 4.86732134,4.92939023e-14 8.24895288,4.92939023e-14 C11.0174956,4.92939023e-14 13.5297954,1.0665815 15.374812,2.80014079 Z" id="形状结合"></path>
                    <polygon id="路径-4" points="4.4408921e-16 4.04560629 4.58474242 4.04560629 3.48937065 2.88971878"></polygon>
                    <path d="M15.8284146,12.3358072 L14.6337601,13.5812727 L14.5876606,13.5812727 C13.0636525,12.1500188 10.9888753,11.2694977 8.70255546,11.2694977 C6.4162362,11.2694977 4.34145936,12.1500184 2.81745137,13.5812717 L0.453602583,13.5812727 C2.32159042,11.1269375 5.32092393,9.53566646 8.70255546,9.53566646 C11.4710982,9.53566646 13.983398,10.602248 15.8284146,12.3358072 Z" id="形状结合" transform="translate(8.141115, 11.558672) rotate(-180.000000) translate(-8.141115, -11.558672) "></path>
                    <polygon id="路径-4" transform="translate(13.654332, 10.114016) rotate(-180.000000) translate(-13.654332, -10.114016) " points="11.4800378 10.6919595 15.8286269 10.6919595 14.9694085 9.53607197"></polygon>
                </g>
            </g>
        </g>
    </g>
</svg>