<?xml version="1.0" encoding="UTF-8"?>
<svg width="18px" height="18px" viewBox="0 0 18 18" version="1.1" xmlns="http://www.w3.org/2000/svg" xmlns:xlink="http://www.w3.org/1999/xlink">
    <!-- Generator: Sketch 59 (86127) - https://sketch.com -->
    <title>biyanjing 2</title>
    <desc>Created with Sketch.</desc>
    <g id="0526-支付钱包UI--桌面端" stroke="none" stroke-width="1" fill="none" fill-rule="evenodd">
        <g id="桌面端-创建钱包-未导入状态-导入助记词" transform="translate(-1198.000000, -367.000000)" fill="#3C3848" fill-rule="nonzero">
            <g id="biyanjing-2" transform="translate(1198.000000, 367.000000)">
                <g id="biyanjing" transform="translate(0.000000, 4.000000)">
                    <path d="M8.20952868,6.48155738 C7.51690574,6.43483607 6.84067623,6.31762296 6.19313524,6.13729509 L4.85215165,9.01270491 C4.76014936,9.20870988 4.5938414,9.35997881 4.39001943,9.43304707 C4.18619745,9.50611532 3.96166196,9.49496008 3.76608606,9.40204918 C3.35859196,9.21212255 3.18013253,8.72940439 3.36608607,8.32008197 L4.65297132,5.5602459 C3.5590492,5.04578716 2.58468019,4.30844948 1.79231557,3.39549181 C1.20666068,2.71870729 0.747444486,1.94214884 0.436577862,1.10286885 C0.335840673,0.827891483 0.389454354,0.520059265 0.577223149,0.295329618 C0.764991944,0.0705999703 1.05838931,-0.0368853265 1.34689529,0.0133623991 C1.63540127,0.0636101246 1.87518494,0.263957048 1.97592212,0.53893442 C2.2194303,1.1938568 2.57869644,1.79966724 3.03657787,2.32745902 C4.39231558,3.90778688 6.55133197,4.86680327 8.90870902,4.86680327 C11.2669057,4.86680327 13.4259221,3.9069672 14.7816598,2.32745902 C15.2395413,1.79966724 15.5988074,1.1938568 15.8423156,0.53893442 C15.9980418,0.113856251 16.4688767,-0.104496666 16.8939549,0.0512295249 C17.3190331,0.206955716 17.537386,0.677790676 17.3816598,1.10286885 C17.0707932,1.94214884 16.611577,2.71870729 16.0259221,3.39549181 C15.910037,3.53054677 15.7897538,3.66176484 15.6652664,3.78893443 L17.6701844,5.79385245 C17.9847809,6.11483713 17.9822214,6.6292926 17.6644467,6.94713114 C17.5124799,7.10121032 17.3054086,7.18842631 17.0889989,7.18950297 C16.8725893,7.19057964 16.6646604,7.10542833 16.511168,6.95286885 L14.4046107,4.84631148 C14.011168,5.11680329 13.5931352,5.35696721 13.1554303,5.56516393 L14.4406762,8.31926229 C14.6271756,8.72879996 14.4486314,9.2121132 14.0406762,9.40204918 C13.8451003,9.49496008 13.6205648,9.50611531 13.4167429,9.43304706 C13.2129209,9.3599788 13.0466129,9.20870988 12.9546107,9.01270491 L11.6152664,6.1397541 C11.0373448,6.30015795 10.4461642,6.40824386 9.84887296,6.46270491 L9.84887296,8.97254099 C9.8448245,9.42234985 9.4790279,9.78483606 9.02920082,9.78483606 C8.57346311,9.78483606 8.20952868,9.42090163 8.20952868,8.97336065 L8.20952868,6.48155738 Z" id="路径"></path>
                    <path d="M2.5767418,3.46516393 C2.73012557,3.31249656 2.93799302,3.22719823 3.15440248,3.22811367 C3.37081193,3.22904394 3.57794435,3.31611199 3.73002049,3.47008196 C4.04833581,3.78801569 4.05089659,4.30309732 3.7357582,4.62418033 L1.40706968,6.95286885 C1.25354405,7.10568043 1.04543876,7.19099158 0.828827736,7.18992475 C0.61221671,7.18883778 0.404969956,7.10146166 0.252971311,6.94713114 C-0.0648033509,6.6292926 -0.0673628337,6.11483713 0.2472336,5.79385245 L2.5767418,3.46434427 L2.5767418,3.46516393 Z" id="路径"></path>
                </g>
            </g>
        </g>
    </g>
</svg>