<?xml version="1.0" encoding="UTF-8"?>
<svg width="19px" height="19px" viewBox="0 0 19 19" version="1.1" xmlns="http://www.w3.org/2000/svg" xmlns:xlink="http://www.w3.org/1999/xlink">
    <!-- Generator: Sketch 59 (86127) - https://sketch.com -->
    <title>jurassic_openeyes 2</title>
    <desc>Created with Sketch.</desc>
    <g id="0526-支付钱包UI--桌面端" stroke="none" stroke-width="1" fill="none" fill-rule="evenodd">
        <g id="桌面端-创建钱包-未导入状态-导入助记词" transform="translate(-1153.000000, -366.000000)" fill="#47444F" fill-rule="nonzero">
            <g id="jurassic_openeyes-2" transform="translate(1153.000000, 366.000000)">
                <g id="jurassic_openeyes" transform="translate(0.000000, 4.000000)">
                    <path d="M9.07942431,0.424299551 C4.88679038,0.424299551 0.0794243091,5.92429955 0.0794243091,5.92429955 C0.0794243091,5.92429955 4.88679038,11.4242996 9.07942431,11.4242996 C13.2720582,11.4242996 18.0794243,5.92429955 18.0794243,5.92429955 C18.0794243,5.92429955 13.2720582,0.424299551 9.07942431,0.424299551 Z M9.07942431,9.59096622 C7.21714752,9.59096622 5.70442431,7.94969638 5.70442431,5.92429955 C5.70442431,3.90108527 7.21714752,2.25763288 9.07942431,2.25763288 C10.94371,2.25763288 12.4544243,3.90108527 12.4544243,5.92429955 C12.4544243,7.94969638 10.94371,9.59096622 9.07942431,9.59096622 Z M9.07942431,8.368744 C7.83790645,8.368744 6.82942431,7.27310908 6.82942431,5.92429955 C6.82942431,4.57549003 7.83790645,3.47985511 9.07942431,3.47985511 C10.3209422,3.47985511 11.3294243,4.57549003 11.3294243,5.92429955 C11.3294243,7.27310908 10.3209422,8.368744 9.07942431,8.368744 Z" id="形状"></path>
                </g>
            </g>
        </g>
    </g>
</svg>