<?xml version="1.0" encoding="UTF-8"?>
<svg width="15px" height="9px" viewBox="0 0 15 9" version="1.1" xmlns="http://www.w3.org/2000/svg" xmlns:xlink="http://www.w3.org/1999/xlink">
    <!-- Generator: Sketch 59 (86127) - https://sketch.com -->
    <title>jurassic_openeyes 3</title>
    <desc>Created with Sketch.</desc>
    <g id="0526-支付钱包UI--桌面端" stroke="none" stroke-width="1" fill="none" fill-rule="evenodd">
        <g id="桌面端-导入钱包-我的" transform="translate(-477.000000, -185.000000)" fill="#FFFFFF" fill-rule="nonzero">
            <g id="编组-30" transform="translate(406.000000, 141.000000)">
                <g id="jurassic_openeyes-3" transform="translate(70.192945, 44.000000)">
                    <g id="jurassic_openeyes-2" transform="translate(1.000000, 0.000000)">
                        <g id="jurassic_openeyes">
                            <path d="M6.63157895,0 C3.54226974,0 0,4.05263158 0,4.05263158 C0,4.05263158 3.54226974,8.10526316 6.63157895,8.10526316 C9.72088816,8.10526316 13.2631579,4.05263158 13.2631579,4.05263158 C13.2631579,4.05263158 9.72088816,0 6.63157895,0 Z M6.63157895,6.75438596 C5.259375,6.75438596 4.14473684,5.54502924 4.14473684,4.05263158 C4.14473684,2.56184211 5.259375,1.35087719 6.63157895,1.35087719 C8.00526316,1.35087719 9.11842105,2.56184211 9.11842105,4.05263158 C9.11842105,5.54502924 8.00526316,6.75438596 6.63157895,6.75438596 Z M6.63157895,5.85380117 C5.71677632,5.85380117 4.97368421,5.04649123 4.97368421,4.05263158 C4.97368421,3.05877193 5.71677632,2.25146199 6.63157895,2.25146199 C7.54638158,2.25146199 8.28947368,3.05877193 8.28947368,4.05263158 C8.28947368,5.04649123 7.54638158,5.85380117 6.63157895,5.85380117 Z" id="形状"></path>
                        </g>
                    </g>
                </g>
            </g>
        </g>
    </g>
</svg>