<?xml version="1.0" encoding="UTF-8"?>
<svg width="14px" height="8px" viewBox="0 0 14 8" version="1.1" xmlns="http://www.w3.org/2000/svg" xmlns:xlink="http://www.w3.org/1999/xlink">
    <!-- Generator: Sketch 59 (86127) - https://sketch.com -->
    <title>biyanjing 2</title>
    <desc>Created with Sketch.</desc>
    <g id="0526-支付钱包UI--桌面端" stroke="none" stroke-width="1" fill="none" fill-rule="evenodd">
        <g id="桌面端-导入钱包-隐藏资产" transform="translate(-497.000000, -186.000000)" fill="#FFFFFF" fill-rule="nonzero">
            <g id="biyanjing-2" transform="translate(497.000000, 186.000000)">
                <g id="biyanjing">
                    <path d="M1.04758522,0.010392977 C1.27197876,0.0494745414 1.45847718,0.205299926 1.53682832,0.419171215 C1.72622357,0.928555291 2.00565279,1.39974119 2.36178279,1.8102459 C3.41624545,3.03938979 5.09548042,3.78529143 6.9289959,3.78529143 C8.76314891,3.78529143 10.4423839,3.03875227 11.4968465,1.8102459 C11.8529765,1.39974119 12.1324058,0.92855529 12.321801,0.419171215 C12.4429214,0.088554862 12.8091263,-0.0812751845 13.1397427,0.039845186 C13.4703591,0.160965557 13.6401891,0.527170526 13.5190688,0.857786885 C13.2772836,1.51056021 12.9201155,2.11455011 12.4646061,2.64093807 C12.3744732,2.74598082 12.2809196,2.84803932 12.1840961,2.946949 L13.7434768,4.50632969 C13.9881629,4.75598443 13.9861722,5.15611646 13.7390141,5.40332422 C13.6208177,5.52316358 13.4597622,5.59099824 13.2914436,5.59183564 C13.123125,5.59267305 12.9614025,5.52644426 12.8420196,5.40778689 L11.2035861,3.76935337 C10.8975751,3.97973589 10.5724385,4.16653005 10.2320014,4.32846083 L11.2316371,6.47053734 C11.3766921,6.78906663 11.2378244,7.16497693 10.920526,7.31270492 C10.7684114,7.38496895 10.5937727,7.39364524 10.4352445,7.33681438 C10.2767163,7.27998351 10.1473656,7.1623299 10.0758083,7.0098816 L9.03409608,4.7753643 C8.58460149,4.90012285 8.12479435,4.98418967 7.66023452,5.02654826 L7.66023452,6.97864299 C7.65708572,7.32849433 7.37257725,7.61042805 7.02271175,7.61042805 C6.66824908,7.61042805 6.38518897,7.32736794 6.38518897,6.97928051 L6.38518897,5.0412113 C5.84648224,5.0048725 5.32052596,4.91370675 4.81688296,4.77345174 L3.77389572,7.0098816 C3.70233839,7.16232991 3.57298776,7.27998352 3.41445955,7.33681439 C3.25593135,7.39364525 3.08129263,7.38496895 2.92917805,7.31270492 C2.61223819,7.1649842 2.47343641,6.78953675 2.61806694,6.47117486 L3.61897769,4.3246357 C3.29895148,4.17413112 2.99208065,3.99910139 2.70095002,3.80150251 L1.09438753,5.40778689 C0.974978704,5.52664033 0.813119037,5.59299345 0.644643795,5.5921637 C0.476168553,5.59131827 0.314976632,5.52335907 0.196755464,5.40332422 C-0.0504026063,5.15611646 -0.0523933151,4.75598443 0.1922928,4.50632969 L1.71423609,2.98492459 C1.603705,2.87418209 1.49689208,2.75946294 1.39402322,2.64093807 C0.938513858,2.11455011 0.581345712,1.51056021 0.33956056,0.857786885 C0.261209413,0.643915598 0.302908942,0.40449054 0.448951338,0.229700814 C0.594993734,0.054911088 0.823191682,-0.0286885873 1.04758522,0.010392977 Z" id="形状结合"></path>
                </g>
            </g>
        </g>
    </g>
</svg>