<?xml version="1.0" encoding="UTF-8"?>
<svg width="18px" height="18px" viewBox="0 0 18 18" version="1.1" xmlns="http://www.w3.org/2000/svg" xmlns:xlink="http://www.w3.org/1999/xlink">
    <!-- Generator: Sketch 59 (86127) - https://sketch.com -->
    <title>编组 22</title>
    <desc>Created with Sketch.</desc>
    <g id="0526-支付钱包UI--桌面端" stroke="none" stroke-width="1" fill="none" fill-rule="evenodd">
        <g id="桌面端-导入钱包-我的" transform="translate(-1201.000000, -224.000000)" fill="#FFFFFF" fill-rule="nonzero" stroke="#501BA2" stroke-width="0.5">
            <g id="编组-22" transform="translate(1201.000000, 224.000000)">
                <g id="编组-3" transform="translate(1.000000, 1.000000)">
                    <path d="M11.5555556,15.0222222 C11.2888889,15.0222222 10.9333333,14.8444444 10.7555556,14.5777778 C10.4888889,14.1333333 10.6666667,13.6 11.1111111,13.3333333 C13.0666667,12.2666667 14.2222222,10.2222222 14.2222222,8 C14.2222222,4.53333333 11.4666667,1.77777778 8,1.77777778 C4.53333334,1.77777778 1.77777778,4.53333333 1.77777778,8 C1.77777778,10.2222222 2.93333334,12.2666667 4.88888889,13.4222222 C5.33333333,13.6 5.42222222,14.2222222 5.24444444,14.5777778 C4.97777777,15.0222222 4.44444444,15.1111111 4,14.9333333 C1.51111111,13.5111111 0,10.8444444 0,8 C0,3.55555556 3.55555556,-4.88498131e-14 8,-4.88498131e-14 C12.4444444,-4.88498131e-14 16,3.55555556 16,8 C16,10.8444444 14.4888889,13.5111111 12,14.9333333 C11.8222222,15.0222222 11.7333333,15.0222222 11.5555556,15.0222222 Z" id="路径"></path>
                    <path d="M11.5555556,6.57777778 C11.5555556,7.37777778 11.3777778,8 11.0222222,8.53333333 C10.8444444,8.71111111 10.4888889,9.15555555 9.77777778,9.77777778 C9.51111111,9.95555556 9.33333334,10.2222222 9.15555556,10.4888889 C8.97777778,10.7555556 8.97777778,11.1111111 8.88888889,11.3777778 L8.88888889,11.7333333 C8.8,12.0888889 8.44444445,12.3555555 8,12.3555555 C7.55555555,12.3555555 7.2,12.0888889 7.11111111,11.7333333 L7.11111111,11.6444444 L7.11111111,11.4666667 C7.11111111,10.8444445 7.2,10.3111111 7.37777778,9.95555555 C7.55555556,9.51111111 8.08888889,8.79999999 9.06666667,7.91111111 L9.24444444,7.73333333 C9.51111111,7.37777777 9.68888888,7.02222222 9.68888889,6.66666667 C9.68888889,6.22222224 9.51111111,5.77777778 9.24444444,5.51111111 C8.97777777,5.24444444 8.62222222,5.06666667 8.08888889,5.06666667 C7.46666667,5.06666667 6.93333333,5.24444445 6.66666667,5.68888889 C6.4,5.95555556 6.31111111,6.31111111 6.31111111,6.93333333 L6.31111111,7.02222222 C6.31111111,7.55555555 5.86666667,8 5.42222222,8 C4.97777777,8 4.53333333,7.55555556 4.53333333,7.02222222 C4.53333333,5.77777778 4.8,5.15555555 5.51111111,4.53333333 C6.13333333,3.82222222 7.02222222,3.46666667 8.17777778,3.46666667 C9.24444445,3.46666667 10.0444445,3.73333335 10.6666667,4.26666667 C11.2888889,4.8 11.5555556,5.6 11.5555556,6.57777778 L11.5555556,6.57777778 Z M8.62222222,14.4 C8.8,14.5777778 8.88888889,14.7555556 8.88888889,15.0222222 C8.88888889,15.2888889 8.8,15.4666667 8.62222222,15.6444444 C8.44444444,15.8222222 8.26666666,15.9111111 8,15.9111111 C7.73333334,15.9111111 7.55555556,15.8222222 7.37777778,15.6444444 C7.2,15.4666667 7.11111111,15.2888889 7.11111111,15.0222222 C7.11111111,14.7555555 7.2,14.5777778 7.37777778,14.4 C7.55555556,14.2222222 7.73333334,14.1333333 8,14.1333333 C8.26666667,14.1333333 8.44444444,14.2222222 8.62222222,14.4 L8.62222222,14.4 Z" id="形状"></path>
                </g>
            </g>
        </g>
    </g>
</svg>