<?xml version="1.0" encoding="UTF-8"?>
<svg width="24px" height="24px" viewBox="0 0 24 24" version="1.1" xmlns="http://www.w3.org/2000/svg" xmlns:xlink="http://www.w3.org/1999/xlink">
    <!-- Generator: Sketch 59 (86127) - https://sketch.com -->
    <title>编组 13备份 3</title>
    <desc>Created with Sketch.</desc>
    <defs>
        <circle id="path-1" cx="12" cy="12" r="12"></circle>
    </defs>
    <g id="0526-支付钱包UI--桌面端" stroke="none" stroke-width="1" fill="none" fill-rule="evenodd">
        <g id="桌面端-币种详情" transform="translate(-1062.000000, -431.000000)">
            <g id="编组-13备份-3" transform="translate(1062.000000, 431.000000)">
                <g id="编组-13备份" transform="translate(12.000000, 12.000000) rotate(-180.000000) translate(-12.000000, -12.000000) ">
                    <g id="编组-37备份">
                        <g id="编组-34">
                            <mask id="mask-2" fill="white">
                                <use xlink:href="#path-1"></use>
                            </mask>
                            <use id="蒙版" fill="#7038FD" xlink:href="#path-1"></use>
                        </g>
                    </g>
                    <g id="编组-11" transform="translate(7.617966, 6.836271)" fill-rule="nonzero" stroke="#FFFFFF" stroke-width="0.820512821">
                        <path d="M0.713142857,0.731428571 L6.71085714,0.731428571 C6.91340659,0.731428571 7.07657143,0.568263736 7.07657143,0.365714286 C7.07657143,0.163164835 6.91340659,1.15374377e-12 6.71085714,1.15374377e-12 L0.713142857,1.15374377e-12 C0.510593407,1.15374377e-12 0.347428571,0.163164835 0.347428571,0.365714286 C0.347428571,0.568263736 0.510593407,0.731428571 0.713142857,0.731428571 Z" id="路径" fill="#FA7268"></path>
                        <path d="M6.53643956,3.28020513 L0.718769231,3.28020513 C0.51621978,3.28020513 0.353054945,3.44336996 0.353054945,3.64591941 C0.353054945,3.84846886 0.51621978,4.0116337 0.718769231,4.0116337 L6.53643956,4.0116337 C7.92615385,4.0116337 9.06268132,5.1425348 9.06268132,6.53787546 C9.06268132,7.93321612 7.93178022,9.06411722 6.53643956,9.06411722 L1.24764835,9.06411722 L2.19287912,8.11888645 C2.33353846,7.97822711 2.33353846,7.74191941 2.19287912,7.60126007 C2.05221978,7.46060073 1.81591209,7.46060073 1.67525275,7.60126007 L0.105494505,9.17101832 C-0.0351648352,9.31167766 -0.0351648352,9.54798535 0.105494505,9.68864469 L1.67525275,11.2584029 C1.7483956,11.3315458 1.83841758,11.365304 1.93406593,11.365304 C2.02971429,11.365304 2.11973626,11.3315458 2.19287912,11.2584029 C2.33353846,11.1177436 2.33353846,10.8814359 2.19287912,10.7407766 L1.24764835,9.79554579 L6.53643956,9.79554579 C8.33125275,9.79554579 9.79410989,8.33268864 9.79410989,6.53787546 C9.79410989,4.74306227 8.33125275,3.28020513 6.53643956,3.28020513 Z" id="路径" fill="#3E3A39"></path>
                    </g>
                </g>
            </g>
        </g>
    </g>
</svg>