<?xml version="1.0" encoding="UTF-8"?>
<svg width="41px" height="41px" viewBox="0 0 41 41" version="1.1" xmlns="http://www.w3.org/2000/svg" xmlns:xlink="http://www.w3.org/1999/xlink">
    <!-- Generator: Sketch 59 (86127) - https://sketch.com -->
    <title>编组备份 5</title>
    <desc>Created with Sketch.</desc>
    <g id="0526-支付钱包UI--桌面端" stroke="none" stroke-width="1" fill="none" fill-rule="evenodd">
        <g id="画板" transform="translate(-1619.000000, -8822.000000)">
            <g id="编组备份-5" transform="translate(1619.000000, 8822.000000)">
                <rect id="矩形" fill="#42368A" x="0" y="0" width="41" height="41"></rect>
                <g id="编组-5备份" transform="translate(13.000000, 13.000000)" stroke="#FFFFFF" stroke-width="2.1">
                    <g id="编组-4" transform="translate(0.269436, 0.269436)">
                        <path d="M-5.10702591e-13,2.89007215 C1.03996432,1.09976266 2.42981087,0.149728216 4.16953965,0.0399688358 C6.77913283,-0.124670235 8.38137191,2.827098 11.3218699,2.72485214 C12.7275181,2.59092556 13.8684114,1.68264151 14.74455,8.8817842e-15" id="路径-5"></path>
                        <path d="M-5.10702591e-13,8.89464881 C1.03996432,7.10433932 2.42981087,6.15430488 4.16953965,6.04454549 C6.77913283,5.87990642 8.38137191,8.83167466 11.3218699,8.7294288 C12.7275181,8.59550222 13.8684114,7.68721817 14.74455,6.00457666" id="路径-5复制"></path>
                        <path d="M-5.10702591e-13,14.8992255 C1.03996432,13.108916 2.42981087,12.1588815 4.16953965,12.0491222 C6.77913283,11.8844831 8.38137191,14.8362513 11.3218699,14.7340055 C12.7275181,14.6000789 13.8684114,13.6917948 14.74455,12.0091533" id="路径-5复制-2"></path>
                    </g>
                </g>
            </g>
        </g>
    </g>
</svg>