<?xml version="1.0" encoding="UTF-8"?>
<svg width="12px" height="12px" viewBox="0 0 12 12" version="1.1" xmlns="http://www.w3.org/2000/svg" xmlns:xlink="http://www.w3.org/1999/xlink">
    <!-- Generator: Sketch 59 (86127) - https://sketch.com -->
    <title>编组 15</title>
    <desc>Created with Sketch.</desc>
    <g id="页面-1" stroke="none" stroke-width="1" fill="none" fill-rule="evenodd">
        <g id="桌面端-存款" transform="translate(-548.000000, -341.000000)">
            <g id="编组-15" transform="translate(548.000000, 341.000000)">
                <g id="xiane-2" transform="translate(0.857143, 0.857143)" fill-rule="nonzero">
                    <path d="M0,5.14285714 C0,7.98317871 2.30253557,10.2857143 5.14285714,10.2857143 C7.98317871,10.2857143 10.2857143,7.98317871 10.2857143,5.14285714 C10.2857143,2.30253557 7.98317871,0 5.14285714,0 C2.30253557,0 0,2.30253557 0,5.14285714 Z" id="路径" fill="#FB8F0B"></path>
                    <g id="编组-7" transform="translate(2.777143, 2.674286)" fill="#FBFBFE">
                        <polygon id="路径" points="2.13162821e-14 -2.11386464e-13 4.71217452 -2.11386464e-13 4.71217452 0.809904992 2.22318059e-14 0.809904992"></polygon>
                        <polygon id="路径" points="4.12315271 3.30146727 3.23961998 3.30146727 3.23961998 5.30119634 1.47255453 5.30119634 1.47255453 3.29852217 0.589021806 3.29852217 2.35608726 1.1827558 4.12315271 3.29852217"></polygon>
                    </g>
                </g>
                <rect id="矩形" opacity="0" x="0" y="0" width="12" height="12"></rect>
            </g>
        </g>
    </g>
</svg>