<?xml version="1.0" encoding="UTF-8"?>
<svg width="169px" height="25px" viewBox="0 0 169 25" version="1.1" xmlns="http://www.w3.org/2000/svg" xmlns:xlink="http://www.w3.org/1999/xlink">
    <!-- Generator: Sketch 59 (86127) - https://sketch.com -->
    <title>编组 8</title>
    <desc>Created with Sketch.</desc>
    <g id="0526-支付钱包UI--桌面端" stroke="none" stroke-width="1" fill="none" fill-rule="evenodd">
        <g id="桌面端-适配最小尺寸1024X768" transform="translate(-14.000000, -21.000000)" fill="#FFFFFF" fill-rule="nonzero">
            <g id="编组-8" transform="translate(14.000000, 17.000000)">
                <path d="M65.9296875,5.8671875 L69.5976562,5.8671875 L63.7734375,23 L59.8125,23 L54,5.8671875 L57.6679688,5.8671875 L60.890625,16.0625 L61.0722658,16.6972661 C61.1640625,17.0312498 61.2573239,17.3901351 61.3520505,17.7739246 L61.6000199,18.8208023 C61.7036527,19.2788099 61.7718748,19.6171864 61.8046875,19.8359375 L61.8466187,19.541137 C61.9671018,18.7943107 62.2460916,17.6347735 62.6835938,16.0625 L65.9296875,5.8671875 Z M71.3203125,6.51171875 C71.3203125,5.34765043 71.9687435,4.765625 73.265625,4.765625 C74.5625065,4.765625 75.2109375,5.34765043 75.2109375,6.51171875 C75.2109375,7.06640902 75.0488297,7.49804533 74.7246094,7.80664062 C74.400389,8.11523592 73.9140657,8.26953125 73.265625,8.26953125 C71.9687435,8.26953125 71.3203125,7.68359961 71.3203125,6.51171875 Z M75.046875,23 L71.4726562,23 L71.4726562,9.8984375 L75.046875,9.8984375 L75.046875,23 Z M81.6445312,16.4257812 C81.6445312,17.7226627 81.8574197,18.7031217 82.2832031,19.3671875 C82.7089865,20.0312533 83.4023389,20.3632812 84.3632812,20.3632812 C85.316411,20.3632812 86.001951,20.0332064 86.4199219,19.3730469 C86.8378927,18.7128873 87.046875,17.7304753 87.046875,16.4257812 C87.046875,15.1288998 86.8359396,14.1562532 86.4140625,13.5078125 C85.9921854,12.8593718 85.3007861,12.5351562 84.3398438,12.5351562 C83.386714,12.5351562 82.6992209,12.8574187 82.2773438,13.5019531 C81.8554666,14.1464876 81.6445312,15.1210872 81.6445312,16.4257812 Z M90.703125,16.4257812 C90.703125,18.5586044 90.1406306,20.2265565 89.015625,21.4296875 C87.8906194,22.6328185 86.3242288,23.234375 84.3164062,23.234375 C83.0585875,23.234375 81.9492236,22.9589871 80.9882812,22.4082031 C80.0273389,21.8574191 79.2890651,21.0664114 78.7734375,20.0351562 C78.2578099,19.0039011 78,17.8007881 78,16.4257812 C78,14.2851455 78.5585882,12.6210997 79.6757812,11.4335938 C80.7929743,10.2460878 82.3632711,9.65234375 84.3867188,9.65234375 C85.6445375,9.65234375 86.7539014,9.92577852 87.7148438,10.4726562 C88.6757861,11.019534 89.4140599,11.8046824 89.9296875,12.828125 C90.4453151,13.8515676 90.703125,15.0507744 90.703125,16.4257812 Z M97.2304688,23 L93.65625,23 L93.65625,4.765625 L97.2304688,4.765625 L97.2304688,23 Z M109.300781,23 L108.609375,21.21875 L108.515625,21.21875 C107.914059,21.9765663 107.294925,22.5019517 106.658203,22.7949219 C106.021481,23.0878921 105.191411,23.234375 104.167969,23.234375 C102.91015,23.234375 101.919925,22.8750036 101.197266,22.15625 C100.474606,21.4374964 100.113281,20.4140691 100.113281,19.0859375 C100.113281,17.6953055 100.599605,16.6699252 101.572266,16.0097656 C102.544927,15.3496061 104.011709,14.9843754 105.972656,14.9140625 L108.246094,14.84375 L108.246094,14.2695312 C108.246094,12.9413996 107.566413,12.2773438 106.207031,12.2773438 C105.160151,12.2773438 103.929695,12.5937468 102.515625,13.2265625 L101.332031,10.8125 C102.839851,10.0234336 104.51171,9.62890625 106.347656,9.62890625 C108.105478,9.62890625 109.45312,10.0117149 110.390625,10.7773438 C111.32813,11.5429726 111.796875,12.7070234 111.796875,14.2695312 L111.796875,23 L109.300781,23 Z M108.246094,16.9296875 L106.863281,16.9765625 C105.824214,17.0078127 105.050784,17.1953108 104.542969,17.5390625 C104.035154,17.8828142 103.78125,18.4062465 103.78125,19.109375 C103.78125,20.1171925 104.359369,20.6210938 105.515625,20.6210938 C106.343754,20.6210938 107.005857,20.3828149 107.501953,19.90625 C107.998049,19.4296875 108.246094,18.7968789 108.246094,18.0078125 L108.246094,16.9296875 Z M124.617188,19.109375 C124.617188,20.4531317 124.150395,21.476559 123.216797,22.1796875 C122.283198,22.882816 120.886728,23.234375 119.027344,23.234375 C118.074214,23.234375 117.261722,23.1699225 116.589844,23.0410156 C115.917965,22.9121087 115.289065,22.7226575 114.703125,22.4726562 L114.703125,19.5195312 C115.367191,19.8320328 116.11523,20.0937489 116.947266,20.3046875 C117.779301,20.5156261 118.511716,20.6210938 119.144531,20.6210938 C120.441413,20.6210938 121.089844,20.2460975 121.089844,19.4960938 C121.089844,19.2148423 121.003907,18.986329 120.832031,18.8105469 C120.660155,18.6347647 120.363283,18.435548 119.941406,18.2128906 L119.54536,18.0129542 C119.330118,17.9084422 119.089048,17.7971145 118.822147,17.6789705 L118.253906,17.4335938 C117.246089,17.0117166 116.505862,16.6210955 116.033203,16.2617188 C115.560545,15.902342 115.216798,15.4902367 115.001953,15.0253906 C114.787108,14.5605446 114.679688,13.9882846 114.679688,13.3085938 C114.679688,12.1445254 115.130855,11.2441438 116.033203,10.6074219 C116.935551,9.97069994 118.214835,9.65234375 119.871094,9.65234375 C121.449227,9.65234375 122.984368,9.99609031 124.476562,10.6835938 L123.398438,13.2617188 C122.742184,12.9804673 122.128909,12.7500009 121.558594,12.5703125 C120.988278,12.3906241 120.406253,12.3007812 119.8125,12.3007812 C118.757807,12.3007812 118.230469,12.5859346 118.230469,13.15625 C118.230469,13.4765641 118.400389,13.7539051 118.740234,13.9882812 C119.001654,14.1685706 119.502297,14.4158876 120.242174,14.7302368 L120.972656,15.03125 C121.996099,15.4453146 122.746091,15.8320295 123.222656,16.1914062 C123.699221,16.550783 124.05078,16.9648414 124.277344,17.4335938 C124.503907,17.9023461 124.617188,18.4609343 124.617188,19.109375 Z M131.320312,13.9296875 L132.515625,13.9296875 C133.632818,13.9296875 134.468747,13.7089866 135.023438,13.2675781 C135.578128,12.8261697 135.855469,12.183598 135.855469,11.3398438 C135.855469,10.488277 135.623049,9.85937703 135.158203,9.453125 C134.693357,9.04687297 133.964849,8.84375 132.972656,8.84375 L131.320312,8.84375 L131.320312,13.9296875 Z M139.523438,11.2109375 C139.523438,13.0546967 138.947271,14.4648389 137.794922,15.4414062 C136.642572,16.4179736 135.003917,16.90625 132.878906,16.90625 L131.320312,16.90625 L131.320312,23 L127.6875,23 L127.6875,5.8671875 L133.160156,5.8671875 C135.238292,5.8671875 136.818354,6.31444865 137.900391,7.20898438 C138.982427,8.1035201 139.523438,9.43749113 139.523438,11.2109375 Z M150.796875,23 L150.105469,21.21875 L150.011719,21.21875 C149.410153,21.9765663 148.791019,22.5019517 148.154297,22.7949219 C147.517575,23.0878921 146.687505,23.234375 145.664062,23.234375 C144.406244,23.234375 143.416019,22.8750036 142.693359,22.15625 C141.9707,21.4374964 141.609375,20.4140691 141.609375,19.0859375 C141.609375,17.6953055 142.095698,16.6699252 143.068359,16.0097656 C144.04102,15.3496061 145.507803,14.9843754 147.46875,14.9140625 L149.742188,14.84375 L149.742188,14.2695312 C149.742188,12.9413996 149.062507,12.2773438 147.703125,12.2773438 C146.656245,12.2773438 145.425788,12.5937468 144.011719,13.2265625 L142.828125,10.8125 C144.335945,10.0234336 146.007803,9.62890625 147.84375,9.62890625 C149.601571,9.62890625 150.949214,10.0117149 151.886719,10.7773438 C152.824223,11.5429726 153.292969,12.7070234 153.292969,14.2695312 L153.292969,23 L150.796875,23 Z M149.742188,16.9296875 L148.359375,16.9765625 C147.320307,17.0078127 146.546878,17.1953108 146.039062,17.5390625 C145.531247,17.8828142 145.277344,18.4062465 145.277344,19.109375 C145.277344,20.1171925 145.855463,20.6210938 147.011719,20.6210938 C147.839848,20.6210938 148.501951,20.3828149 148.998047,19.90625 C149.494143,19.4296875 149.742188,18.7968789 149.742188,18.0078125 L149.742188,16.9296875 Z M155.097656,9.8984375 L159.011719,9.8984375 L161.484375,17.2695312 C161.695314,17.9101595 161.839843,18.6679644 161.917969,19.5429688 L161.988281,19.5429688 C162.059896,18.8723925 162.188476,18.2343764 162.374023,17.6289072 L164.917969,9.8984375 L168.75,9.8984375 L163.207031,24.6757812 C162.699216,26.0429756 161.974614,27.0664029 161.033203,27.7460938 C160.091792,28.4257846 158.992194,28.765625 157.734375,28.765625 C157.117184,28.765625 156.511722,28.6992194 155.917969,28.5664062 L155.917969,25.7304688 C156.347658,25.8320318 156.816404,25.8828125 157.324219,25.8828125 C157.957034,25.8828125 158.509763,25.6894551 158.982422,25.3027344 C159.45508,24.9160137 159.824217,24.3320352 160.089844,23.5507812 L160.300781,22.90625 L155.097656,9.8984375 Z" id="ViolasPay"></path>
                <g id="形状结合-2" transform="translate(0.000000, 4.000000)">
                    <path d="M41.4666599,0.716409361 L31.7624406,12.0528936 L35.4047493,16.3826626 C36.139663,17.2563511 37.4368539,17.4216439 38.3749948,16.7882556 L38.5129079,16.687246 C38.5832277,16.6314953 38.6499068,16.5716154 38.712577,16.507958 L38.8035297,16.4096827 L44.3167416,10.0702146 L47.5023602,12.6814079 L41.9891482,19.020876 C41.7354788,19.3125624 41.454569,19.5808501 41.150007,19.8223122 C38.4881651,21.9326664 34.5988343,21.6093664 32.3416921,19.1326455 L32.1755115,18.9428581 L29.0484406,15.2238936 L25.8575147,18.9523952 C25.66094,19.1820399 25.4475996,19.3974795 25.2192035,19.5970679 L24.9858522,19.7913116 C22.3237556,21.901363 18.4344638,21.5776204 16.1776207,19.1006427 L16.011463,18.9108364 L0.710659898,0.716409361 L6.0916599,0.716409361 L19.2410098,16.3510083 C20.0125585,17.2684691 21.404112,17.4049941 22.3491316,16.6559454 C22.422475,16.5978114 22.4918545,16.5351897 22.5568541,16.4684806 L22.6510166,16.3654015 L26.3614406,12.0298936 L16.8436599,0.716409361 L22.2266599,0.716409361 L29.0764406,8.8588936 L36.0456599,0.716409361 L41.4666599,0.716409361 Z" id="形状结合"></path>
                </g>
            </g>
        </g>
    </g>
</svg>