<?xml version="1.0" encoding="UTF-8"?>
<svg width="20px" height="20px" viewBox="0 0 20 20" version="1.1" xmlns="http://www.w3.org/2000/svg" xmlns:xlink="http://www.w3.org/1999/xlink">
    <!-- Generator: Sketch 59 (86127) - https://sketch.com -->
    <title>duihuanqingkuang 2</title>
    <desc>Created with Sketch.</desc>
    <g id="页面-1" stroke="none" stroke-width="1" fill="none" fill-rule="evenodd">
        <g id="首页钱包-增加映射" transform="translate(-1186.000000, -217.000000)" fill="#501BA2" fill-rule="nonzero" stroke="#501BA2" stroke-width="0.25">
            <g id="duihuanqingkuang-2" transform="translate(1186.000000, 217.000000)">
                <g id="duihuanqingkuang" transform="translate(1.000000, 1.000000)">
                    <path d="M15.958,8 L7.991,8 L3.967,8 L7.991,4 L7.991,6 L15.323,6 C14.19,3.644 11.794,2 8.99699999,2 C5.456,2 2.52599999,4.61299999 2.036,8 L0.00300000586,8 C0.503000006,3.5 4.337,0 8.99699999,0 C13.656,0 17.49,3.5 17.991,8 L16.038,8 L15.958,8 Z M2.036,10 L8.99699999,10 L13.02,10 L8.99699999,14 L8.99699999,12 L2.671,12 C3.80299999,14.356 6.199,16 8.99699999,16 C12.537,16 15.467,13.386 15.958,10 L17.991,10 C17.49,14.499 13.656,18 8.99699999,18 C4.337,18 0.503000006,14.499 0.00300000586,10 L0.949000008,10 L2.036,10 Z" id="形状"></path>
                </g>
            </g>
        </g>
    </g>
</svg>