<?xml version="1.0" encoding="UTF-8"?>
<svg width="24px" height="24px" viewBox="0 0 24 24" version="1.1" xmlns="http://www.w3.org/2000/svg" xmlns:xlink="http://www.w3.org/1999/xlink">
    <!-- Generator: Sketch 59 (86127) - https://sketch.com -->
    <title>wode 2</title>
    <desc>Created with Sketch.</desc>
    <g id="0526-支付钱包UI--桌面端" stroke="none" stroke-width="1" fill="none" fill-rule="evenodd">
        <g id="画板" transform="translate(-1909.000000, -8756.000000)" fill-rule="nonzero">
            <g id="wode-2" transform="translate(1909.000000, 8756.000000)">
                <g id="wode">
                    <path d="M0.0179464286,12 C0.0723214286,8.02848214 0.762053571,4.74 2.77875,2.77875 C4.74,0.762053571 8.02848214,0.0723214286 12,0.0179464286 C15.9715179,0.0723214286 19.26,0.762053571 21.22125,2.77875 C23.2379464,4.74 23.9276786,8.02848214 23.9820536,12 C23.9276786,15.9715179 23.2379464,19.26 21.22125,21.22125 C19.26,23.2379464 15.9715179,23.9276786 12,23.9820536 C8.02848214,23.9276786 4.74,23.2379464 2.77875,21.22125 C0.762053571,19.26 0.0723214286,15.9715179 0.0179464286,12 Z" id="路径" fill="#501BA2"></path>
                    <path d="M16.6296429,18.5884821 C17.5044643,18.5884821 18.0198214,17.5858929 17.4929464,16.8873214 C16.2375,15.2223214 14.24625,14.1452679 12,14.1452679 C9.75375,14.1452679 7.7625,15.2223214 6.50705357,16.8873214 C5.98017857,17.5858929 6.49553571,18.5884821 7.37035714,18.5884821 L16.6296429,18.5884821 Z M12,5.41151786 C9.90428571,5.41151786 8.20553571,7.11026786 8.20553571,9.20598214 C8.20553571,11.3016964 9.90428571,13.0004464 12,13.0004464 C14.0957143,13.0004464 15.7944643,11.3016964 15.7944643,9.20598214 C15.7944643,7.11053571 14.0957143,5.41151786 12,5.41151786 L12,5.41151786 Z M13.224375,11.7744643 C12.9444643,12.1454464 12.5008929,12.3857143 12.0002679,12.3857143 C11.4996429,12.3857143 11.0558036,12.1457143 10.7758929,11.7744643 C10.6585714,11.6188393 10.7732143,11.3951786 10.9682143,11.3951786 L13.0317857,11.3951786 C13.2267857,11.3951786 13.3416964,11.6188393 13.224375,11.7744643 Z" id="形状" fill="#FFFFFF"></path>
                </g>
            </g>
        </g>
    </g>
</svg>