<?xml version="1.0" encoding="UTF-8"?>
<svg width="140px" height="119px" viewBox="0 0 140 119" version="1.1" xmlns="http://www.w3.org/2000/svg" xmlns:xlink="http://www.w3.org/1999/xlink">
    <!-- Generator: Sketch 59 (86127) - https://sketch.com -->
    <title>编组 13</title>
    <desc>Created with Sketch.</desc>
    <defs>
        <linearGradient x1="-59.315135%" y1="50%" x2="100%" y2="50%" id="linearGradient-1">
            <stop stop-color="#FFD679" offset="0%"></stop>
            <stop stop-color="#FF640D" offset="100%"></stop>
        </linearGradient>
        <linearGradient x1="-2.77755076%" y1="50.8088927%" x2="100%" y2="50%" id="linearGradient-2">
            <stop stop-color="#FFD679" offset="0%"></stop>
            <stop stop-color="#FF6F1E" offset="100%"></stop>
        </linearGradient>
        <linearGradient x1="-2.77755076%" y1="51.1807158%" x2="100%" y2="50%" id="linearGradient-3">
            <stop stop-color="#FFE7AF" offset="0%"></stop>
            <stop stop-color="#FF6F1E" offset="100%"></stop>
        </linearGradient>
        <linearGradient x1="64.29419%" y1="54.8423818%" x2="0%" y2="44.5037196%" id="linearGradient-4">
            <stop stop-color="#FFFFFF" stop-opacity="0" offset="0%"></stop>
            <stop stop-color="#FFFFFF" offset="100%"></stop>
        </linearGradient>
        <linearGradient x1="-28.3674192%" y1="34.2605681%" x2="119.335392%" y2="71.0950082%" id="linearGradient-5">
            <stop stop-color="#FFE19F" offset="0%"></stop>
            <stop stop-color="#FF6F1E" offset="100%"></stop>
        </linearGradient>
        <linearGradient x1="64.29419%" y1="65.1702161%" x2="0%" y2="32.78125%" id="linearGradient-6">
            <stop stop-color="#FFFFFF" stop-opacity="0" offset="0%"></stop>
            <stop stop-color="#FFFFFF" offset="100%"></stop>
        </linearGradient>
        <linearGradient x1="-2.77755076%" y1="57.4018813%" x2="115.053187%" y2="57.4018813%" id="linearGradient-7">
            <stop stop-color="#FF6F1E" offset="0%"></stop>
            <stop stop-color="#FFD59A" offset="100%"></stop>
        </linearGradient>
        <linearGradient x1="-3.71146373%" y1="41.2127071%" x2="96.8961092%" y2="56.8100541%" id="linearGradient-8">
            <stop stop-color="#FFB35B" offset="0%"></stop>
            <stop stop-color="#EB5A08" offset="100%"></stop>
        </linearGradient>
        <linearGradient x1="-3.71146373%" y1="26.4032615%" x2="93.8690266%" y2="74.4458907%" id="linearGradient-9">
            <stop stop-color="#FFB06F" offset="0%"></stop>
            <stop stop-color="#EB5400" offset="100%"></stop>
        </linearGradient>
        <linearGradient x1="5.66728178%" y1="44.32928%" x2="100%" y2="55.7515806%" id="linearGradient-10">
            <stop stop-color="#FFD679" offset="0%"></stop>
            <stop stop-color="#FF6F1E" offset="100%"></stop>
        </linearGradient>
        <linearGradient x1="27.5343537%" y1="11.0670424%" x2="75.3375467%" y2="89.488115%" id="linearGradient-11">
            <stop stop-color="#FFD679" offset="0%"></stop>
            <stop stop-color="#FF6F1E" offset="100%"></stop>
        </linearGradient>
        <linearGradient x1="39.7723715%" y1="11.0670424%" x2="61.5350794%" y2="89.488115%" id="linearGradient-12">
            <stop stop-color="#FFD679" offset="0%"></stop>
            <stop stop-color="#FF6F1E" offset="100%"></stop>
        </linearGradient>
        <linearGradient x1="24.1305017%" y1="6.21435667%" x2="99.5245532%" y2="133.510812%" id="linearGradient-13">
            <stop stop-color="#FFECB3" offset="0%"></stop>
            <stop stop-color="#FF8329" offset="100%"></stop>
        </linearGradient>
        <linearGradient x1="57.3956705%" y1="80.3567844%" x2="24.1305017%" y2="15.5439396%" id="linearGradient-14">
            <stop stop-color="#FFFFFF" stop-opacity="0" offset="0%"></stop>
            <stop stop-color="#FFFFFF" offset="100%"></stop>
        </linearGradient>
        <linearGradient x1="50%" y1="189.988971%" x2="33.1769493%" y2="-52.1372008%" id="linearGradient-15">
            <stop stop-color="#FFFFFF" stop-opacity="0" offset="0%"></stop>
            <stop stop-color="#FFEABA" offset="100%"></stop>
        </linearGradient>
        <linearGradient x1="-2.77755076%" y1="57.4018813%" x2="128.361799%" y2="57.4018813%" id="linearGradient-16">
            <stop stop-color="#FFD398" offset="0%"></stop>
            <stop stop-color="#FF640C" offset="100%"></stop>
        </linearGradient>
        <linearGradient x1="64.29419%" y1="55.2502741%" x2="0%" y2="44.0407469%" id="linearGradient-17">
            <stop stop-color="#FFFFFF" stop-opacity="0" offset="0%"></stop>
            <stop stop-color="#FFFFFF" offset="100%"></stop>
        </linearGradient>
        <linearGradient x1="21.438931%" y1="17.0773453%" x2="62.6183041%" y2="66.6682706%" id="linearGradient-18">
            <stop stop-color="#FFD398" offset="0%"></stop>
            <stop stop-color="#FF640C" offset="100%"></stop>
        </linearGradient>
        <linearGradient x1="53.0122171%" y1="159.965449%" x2="60.0604164%" y2="-54.7184335%" id="linearGradient-19">
            <stop stop-color="#FFBD7D" offset="0%"></stop>
            <stop stop-color="#FF7A2B" offset="100%"></stop>
        </linearGradient>
        <linearGradient x1="-2.77755076%" y1="51.4621%" x2="190.639323%" y2="50%" id="linearGradient-20">
            <stop stop-color="#FF6F1E" offset="0%"></stop>
            <stop stop-color="#FFD679" offset="100%"></stop>
        </linearGradient>
        <linearGradient x1="-54.8224522%" y1="51.4291627%" x2="100%" y2="50%" id="linearGradient-21">
            <stop stop-color="#FF6F1E" offset="0%"></stop>
            <stop stop-color="#FFD679" offset="100%"></stop>
        </linearGradient>
    </defs>
    <g id="0526-支付钱包UI--桌面端" stroke="none" stroke-width="1" fill="none" fill-rule="evenodd">
        <g id="画板" transform="translate(-1745.000000, -8755.000000)">
            <g id="编组-13" transform="translate(1745.000000, 8755.000000)">
                <path d="M82,107.472988 L104.590963,114.15052 L104.612677,118.872126 L82,111.872126 L82,107.472988 Z" id="形状结合复制" fill="url(#linearGradient-1)"></path>
                <path d="M86,104 L119.516118,106.046603 L108.612677,115.399138 L85.0337071,108.5 L86,104 Z" id="形状结合复制" fill="url(#linearGradient-2)"></path>
                <polygon id="路径-7" fill="url(#linearGradient-3)" points="4.8316906e-13 58.3972246 85.6025656 85.7925711 139.693032 57.0815305 57.6213293 30"></polygon>
                <path d="M1.33160691,58.2983974 L85.5542711,85.2521347 L138.423718,57.1892073 L57.6588893,30.5389113 L1.33160691,58.2983974 Z" id="路径-7" stroke="url(#linearGradient-4)" opacity="0.375348772"></path>
                <polygon id="矩形" fill="url(#linearGradient-5)" points="-7.10542736e-15 58.4067218 85.5340357 85.6587324 85 118.872126 -7.10542736e-15 91.5"></polygon>
                <path d="M0.5,59.0907916 L0.5,91.1357268 L84.5109138,118.189343 L85.0281251,86.0223089 L0.5,59.0907916 Z" id="矩形" stroke="url(#linearGradient-6)" opacity="0.162923177"></path>
                <polygon id="矩形复制" fill="#FF7A2B" transform="translate(112.228666, 87.915795) scale(1, -1) translate(-112.228666, -87.915795) " points="85 56.959463 139.457332 86.8907244 139.457332 118.872126 85 90.5795788"></polygon>
                <ellipse id="椭圆形" fill="url(#linearGradient-7)" cx="71.5" cy="56.5" rx="20.5" ry="9.5"></ellipse>
                <polygon id="路径-8" fill="url(#linearGradient-8)" points="9 73 85.0337071 96.0768993 85.0337071 108.070612 9 84.8346589"></polygon>
                <polygon id="路径-8" fill="url(#linearGradient-9)" transform="translate(112.231106, 87.487115) scale(-1, 1) translate(-112.231106, -87.487115) " points="85.0048801 66.9081718 139.457332 96.0723452 139.457332 108.066058 85.0048801 78.7428307"></polygon>
                <path d="M89.9549105,17.0464908 C89.8775615,16.5904354 89.679548,16.1604231 89.3778417,15.8028877 C84.013798,9.4461704 78.3697777,5.32353826 72.4457809,3.43499127 C66.9876759,1.69496878 57.4164532,3.11121182 49.3315404,4.45952946 C49.623806,3.57577355 53.1782717,1.27856944 54.1356371,1.10373649 C62.896684,-0.496195683 70.1935644,-0.356729696 76.0262784,1.52213445 C82.1037901,3.47985413 87.8936427,7.75693289 93.3958361,14.3533707 C93.7607538,14.79086 93.9713795,15.3350676 93.9972855,15.902009 L89.9549105,17.0464908 Z" id="路径" fill="url(#linearGradient-10)"></path>
                <path d="M54.1356371,1.10373649 C62.896684,-0.496195683 70.1935644,-0.356729696 76.0262784,1.52213445 C82.1037901,3.47985413 87.8936427,7.75693289 93.3958361,14.3533707 C93.7861966,14.8213626 94,15.4114729 94,16.0208969 L94,44.1312402 C93.999999,46.0931548 93.2615976,47.9832046 91.9316344,49.4255314 C88.0851706,53.5969688 84.8669521,56.1910712 82.276979,57.2078385 C80.1701225,58.0349448 78.0388086,58.5757608 75.8830374,58.8302866 L75.8830377,58.8302888 C74.1071696,59.0399606 72.313132,58.6338664 70.8006722,57.6798563 C65.8604659,54.5637363 61.9817513,51.037374 59.1645284,47.1007696 C56.5505493,43.4481647 54.4856239,39.5724124 52.9697523,35.4735125 C52.3283477,33.7391591 52,31.9046919 52,30.0555349 L52,3.66470043 C52,2.40731398 52.898707,1.3296232 54.1356371,1.10373649 Z" id="路径-9复制" fill="url(#linearGradient-11)"></path>
                <path d="M94,16.0208969 L94,44.1312402 C93.999999,46.0931548 93.2615976,47.9832046 91.9316344,49.4255314 C88.0851706,53.5969688 84.8669521,56.1910712 82.276979,57.2078385 C80.3808081,57.9522342 78.4648268,58.4647347 76.5290351,58.7453401 L75.8830377,58.8302888 C75.0102233,58.9333396 74.1330198,58.8876468 73.2870142,58.7012658 L72.9980513,58.7463039 C74.8697122,58.4735938 76.7223947,57.9810224 78.5560985,57.2685898 C81.0652032,56.2937497 84.1783146,53.8181031 87.8954327,49.84165 C89.1765661,48.4711347 89.9191569,46.6880416 89.9937714,44.8203639 L90,44.5083573 L90,17.5173398 C90,17.3562928 89.9850697,17.1966064 89.9559016,17.040175 L93.9877023,15.7681112 C93.9958674,15.8518156 94,15.9361696 94,16.0208969 Z" id="形状结合" fill="url(#linearGradient-12)"></path>
                <path d="M51.1421626,3.05597375 C59.6691009,1.52123574 66.7731214,1.65942338 72.4542241,3.47053667 C78.3782209,5.35908366 84.0222412,9.4817158 89.386285,15.8384331 C89.7826052,16.3080904 90,16.9028093 90,17.5173398 L90,44.5083573 C90.0000048,46.4886468 89.2477402,48.394995 87.8954327,49.84165 C84.1783146,53.8181031 81.0652032,56.2937497 78.5560985,57.2685898 C76.5186498,58.0601816 74.4577707,58.5803398 72.3734614,58.8290643 L72.3734607,58.8290589 C70.6042641,59.0401804 68.816064,58.6400125 67.3055989,57.69496 C62.5056183,54.6917568 58.7350668,51.2948146 55.9939444,47.5041333 C53.4780285,44.0248886 51.4831493,40.3360718 50.0093068,36.4376827 C49.3419595,34.6725197 49,32.8010357 49,30.913934 L49,5.61812957 C48.9999913,4.35823706 49.9021946,3.27915186 51.1421626,3.05597375 Z" id="路径-9" fill="url(#linearGradient-13)"></path>
                <path d="M51.2307329,3.54806652 C50.2289149,3.72838072 49.499993,4.60021436 49.5,5.61812957 L49.5,30.913934 C49.5,32.7406298 49.8310136,34.5522066 50.4769985,36.2608651 C51.9351022,40.1176242 53.9088841,43.767429 56.3991111,47.2111487 C59.1004446,50.9468063 62.8230852,54.3005849 67.5708025,57.2710885 C68.9845648,58.155637 70.658283,58.5301871 72.3142158,58.3325868 C74.356363,58.0888935 76.3763527,57.5790557 78.3750243,56.8025296 C80.7987685,55.8608538 83.8599016,53.426542 87.5301691,49.5002081 C88.7959017,48.1461682 89.5000045,46.3618661 89.5,44.5083573 L89.5,17.5173398 C89.5,17.0208368 89.3243583,16.5403425 89.0041559,16.1608884 C83.6969726,9.87155413 78.1288922,5.80439166 72.3023566,3.94691494 C66.7075871,2.16332433 59.6834338,2.02669027 51.2307329,3.54806652 Z" id="路径-9" stroke="url(#linearGradient-14)" opacity="0.375348772"></path>
                <path d="M68.5113907,40 C73.4737797,40 77.2676334,34.4035594 76.9852001,27.5 C76.7027668,20.5964406 72.4509983,15 67.4886093,15 C62.5262203,15 58.7323666,20.5964406 59.0147999,27.5 C59.2972332,34.4035594 63.5490017,40 68.5113907,40 Z" id="椭圆形" fill="url(#linearGradient-15)" transform="translate(68.000000, 27.500000) rotate(-2.000000) translate(-68.000000, -27.500000) "></path>
                <path d="M60,23.730178 C60,23.730178 61.758746,25.2598658 65.2762381,28.3192414 L78.7489875,23 L65.2762381,32.6450194 C61.758746,26.7017918 60,23.730178 60,23.730178 Z" id="路径-10" fill="#FFFFFF"></path>
                <polygon id="路径-7" fill="url(#linearGradient-16)" points="82 65.9790836 104 72.7867149 124.099933 62.060114 105.973129 55.2783934"></polygon>
                <path d="M83.4169624,65.8941545 L103.948578,72.2474123 L122.887548,62.1403754 L105.989828,55.8184882 L83.4169624,65.8941545 Z" id="路径-7" stroke="url(#linearGradient-17)" opacity="0.375348772"></path>
                <path d="M82,66 L106.385667,73.4743527 L105.61327,77.5421652 L104.024,77.071 L104.590963,114.542165 L100.612677,113.158526 L100.612677,76.1144531 L100.725,76.093 L82,70.5421652 L82,66 Z" id="形状结合" fill="url(#linearGradient-18)"></path>
                <polygon id="矩形复制-3" fill="url(#linearGradient-19)" transform="translate(114.049967, 90.466120) scale(1, -1) translate(-114.049967, -90.466120) " points="104.612677 62.060114 124.099933 75.1892704 124.099933 118.872126 104 108.145526"></polygon>
                <ellipse id="椭圆形复制-2" fill="url(#linearGradient-20)" cx="104.5" cy="63" rx="4.5" ry="2"></ellipse>
                <path d="M105.00809,64 C106.022685,64 106.958856,64.1492336 107.711541,64.4010069 C106.894982,64.7706654 105.75775,65 104.5,65 C103.485291,65 102.549025,64.8507331 101.796297,64.5989088 C102.612935,64.2293695 103.750244,64 105.00809,64 Z" id="形状结合" fill="url(#linearGradient-21)"></path>
                <polygon id="路径-12" fill="#FFF6F2" points="139.693032 78.7842413 124.099933 75.1003345 139.693032 66.7898382"></polygon>
            </g>
        </g>
    </g>
</svg>