<?xml version="1.0" encoding="UTF-8"?>
<svg width="40px" height="40px" viewBox="0 0 40 40" version="1.1" xmlns="http://www.w3.org/2000/svg" xmlns:xlink="http://www.w3.org/1999/xlink">
    <!-- Generator: Sketch 59 (86127) - https://sketch.com -->
    <title>编组 4</title>
    <desc>Created with Sketch.</desc>
    <g id="0526-支付钱包UI--桌面端" stroke="none" stroke-width="1" fill="none" fill-rule="evenodd">
        <g id="桌面端-创建钱包-未导入状态-获取备份-2" transform="translate(-702.000000, -580.000000)">
            <g id="编组-4" transform="translate(702.000000, 580.000000)">
                <path d="M11.4030132,11.8329335 L9.69397363,11.8329335 L9.69397363,9.98743088 C9.69397363,9.82172948 9.80236817,9.69988563 9.96731638,9.69988563 L11.1282721,9.69988563 C11.2931685,9.69988563 11.4030132,9.82172948 11.4030132,9.98743088 L11.4030132,11.8329335 Z" id="Shape" fill="#ECECEC" fill-rule="nonzero"></path>
                <path d="M11.4030132,11.8329335 L9.69397363,11.8329335 L9.69397363,10.8011626 C9.69397363,10.6738561 9.77145009,10.5843201 9.89817797,10.5843201 L11.1973588,10.5843201 C11.3241384,10.5843201 11.4030132,10.6738561 11.4030132,10.8011626 L11.4030132,11.8329335 Z" id="Shape" fill="#E0E0E0" fill-rule="nonzero"></path>
                <path d="M25.5414313,9.84404845 L25.5414313,9.86199727 C25.5414313,9.04420753 24.8571422,8.3992467 24.0430697,8.3992467 L15.9569303,8.3992467 C15.1428578,8.3992467 14.4585687,9.05029452 14.4585687,9.86803223 L14.4585687,9.84997936 C14.4585687,10.6677691 13.823065,11.3126779 13.0089925,11.3126779 L9.41348399,11.3126779 C7.93806497,11.3126779 6.74199623,12.538348 6.74199623,14.0205041 L6.74199623,28.526582 C6.74199623,30.0087381 7.93806497,31.1864407 9.41348399,31.1864407 L30.586516,31.1864407 C32.061935,31.1864407 33.2580038,30.0087381 33.2580038,28.526582 L33.2580038,14.0205041 C33.2580038,12.538348 32.061935,11.3126779 30.586516,11.3126779 L26.9910075,11.3126779 C26.176935,11.3126779 25.5414313,10.6618382 25.5414313,9.84404845 Z" id="Shape" fill="#ECECEC" fill-rule="nonzero"></path>
                <ellipse id="Oval" fill="#FFFFFF" fill-rule="nonzero" cx="29.8725518" cy="14.7343988" rx="1" ry="1"></ellipse>
                <path d="M31.3065913,11.4362906 C31.3098023,11.5722334 31.3117185,11.7085404 31.3117185,11.8452635 C31.3117185,21.1648097 23.791064,28.7197529 14.5139313,28.7197529 C11.7095009,28.7197529 9.06618644,28.0283853 6.74199623,26.8076056 L6.74199623,28.526582 C6.74199623,30.0087381 7.93806497,31.1864407 9.41348399,31.1864407 L30.586516,31.1864407 C32.061935,31.1864407 33.2580038,30.0087381 33.2580038,28.526582 L33.2580038,14.0205041 C33.2580038,12.7891112 32.4320716,11.7521378 31.3065913,11.4362906 Z" id="Shape" fill="#E0E0E0" fill-rule="nonzero"></path>
                <ellipse id="Oval" fill="#D4D4D4" fill-rule="nonzero" cx="20" cy="21.2344719" rx="7.48870056" ry="7.52289554"></ellipse>
                <ellipse id="Oval" fill="#F5F5F5" fill-rule="nonzero" cx="20" cy="21.2344719" rx="5.49689266" ry="5.52199262"></ellipse>
                <ellipse id="Oval" fill="#FFFFFF" fill-rule="nonzero" cx="18.3463748" cy="19.7928437" rx="2.04836158" ry="2.05771483"></ellipse>
                <circle id="Oval-2" stroke="#FF5353" stroke-width="2.32015066" cx="20" cy="20" r="18.6440678"></circle>
                <line x1="8.3992467" y1="5.49905838" x2="32.0150659" y2="34.086629" id="Path-4" stroke="#FF5353" stroke-width="2.32015066"></line>
            </g>
        </g>
    </g>
</svg>