<?xml version="1.0" encoding="UTF-8"?>
<svg width="100px" height="87px" viewBox="0 0 100 87" version="1.1" xmlns="http://www.w3.org/2000/svg" xmlns:xlink="http://www.w3.org/1999/xlink">
    <!-- Generator: Sketch 59 (86127) - https://sketch.com -->
    <title>编组 11</title>
    <desc>Created with Sketch.</desc>
    <g id="0526-支付钱包UI--桌面端" stroke="none" stroke-width="1" fill="none" fill-rule="evenodd">
        <g id="桌面端-支付钱包-进入前输入密码备份" transform="translate(-803.000000, -509.000000)">
            <g id="编组-11" transform="translate(803.000000, 509.000000)">
                <g id="编组-5">
                    <rect id="矩形" fill="#E0E0E0" x="0.404606287" y="20.7851256" width="96.828855" height="66.1344907" rx="3.68871829"></rect>
                    <path d="M92.3333301,20.7852971 C89.3206215,52.6020107 63.1439799,77.4718319 31.2976219,77.4718319 C20.0319764,77.4718319 9.47583338,74.3596478 0.403625157,68.92869 L0.404606287,24.4738439 C0.404606287,22.4366211 2.05610172,20.7851256 4.09332457,20.7851256 Z" id="形状结合" fill="#ECECEC"></path>
                    <path d="M92.3333301,20.7852971 C89.3206215,52.6020107 63.1439799,77.4718319 31.2976219,77.4718319 C20.0319764,77.4718319 9.47583338,74.3596478 0.403625157,68.92869 L0.404606287,24.4738439 C0.404606287,22.4366211 2.05610172,20.7851256 4.09332457,20.7851256 Z" id="形状结合" fill="#ECECEC"></path>
                    <path d="M33.5777759,20.785362 C28.0997065,27.5838226 19.7357988,31.9286662 10.3641457,31.9286662 C6.8721415,31.9286662 3.52005351,31.3254247 0.405042867,30.2167822 L0.404606287,24.4738439 C0.404606287,22.4366211 2.05610172,20.7851256 4.09332457,20.7851256 Z" id="形状结合" fill-opacity="0.66" fill="#FFFFFF"></path>
                    <rect id="矩形" fill="#D4D4D4" x="77.8676903" y="44.4045866" width="22.1323097" height="17.0060119" rx="3.68871829"></rect>
                    <rect id="矩形" fill="#D4D4D4" x="24.3812751" y="26.4537963" width="48.8755173" height="11.3373413" rx="5.53307743"></rect>
                    <ellipse id="椭圆形" fill="#ECECEC" cx="86.1673064" cy="52.9075925" rx="2.76653871" ry="2.83433532"></ellipse>
                    <path d="M41.902687,-2.26485497e-13 C41.902687,4.17429379 45.2056779,7.55822751 49.2801236,7.55822751 C53.2746782,7.55822751 56.5277345,4.30569606 56.6537695,0.244615538 L56.6575601,-2.26485497e-13 L64.9571763,-2.27373675e-13 C66.9943991,-2.24573162e-13 68.6458946,1.65149543 68.6458946,3.68871829 L68.645173,37.791 L28.992173,37.791 L28.992173,3.68871829 C28.992173,1.65149543 30.6436684,-2.29663979e-13 32.6808913,-2.27373675e-13 L41.902687,-2.26485497e-13 Z" id="形状结合" fill="#E0E0E0"></path>
                    <path d="M41.902687,8.8817842e-16 C41.902687,4.17429379 45.2056779,7.55822751 49.2801236,7.55822751 C53.2746782,7.55822751 56.5277345,4.30569606 56.6537695,0.244615538 L56.6575601,8.8817842e-16 L64.9571763,0 C65.887435,1.27880091e-15 66.7372651,0.344356136 67.3861491,0.912550998 C63.0700024,15.729951 49.6667044,26.5325278 33.8006808,26.5325278 C32.16915,26.5325278 30.5636611,26.4182974 28.9914179,26.1972172 L28.992173,3.68871829 C28.992173,1.65149543 30.6436684,-2.29030349e-15 32.6808913,0 L41.902687,8.8817842e-16 Z" id="形状结合" fill="#ECECEC"></path>
                    <ellipse id="椭圆形复制-6" fill="#FFFFFF" cx="36.3696096" cy="12.2821197" rx="2.76653871" ry="2.83433532"></ellipse>
                </g>
            </g>
        </g>
    </g>
</svg>