<?xml version="1.0" encoding="UTF-8"?>
<svg width="17px" height="19px" viewBox="0 0 17 19" version="1.1" xmlns="http://www.w3.org/2000/svg" xmlns:xlink="http://www.w3.org/1999/xlink">
    <!-- Generator: Sketch 59 (86127) - https://sketch.com -->
    <title>tuichu 2</title>
    <desc>Created with Sketch.</desc>
    <g id="0526-支付钱包UI--桌面端" stroke="none" stroke-width="1" fill="none" fill-rule="evenodd">
        <g id="桌面端-导入钱包-我的" transform="translate(-1202.000000, -264.000000)" fill="#FFFFFF" fill-rule="nonzero" stroke="#FFFFFF" stroke-width="0.15">
            <g id="tuichu-2" transform="translate(1202.000000, 264.000000)">
                <g id="tuichu" transform="translate(1.000000, 1.000000)">
                    <path d="M11.0501634,3.09751634 C10.7296217,2.93118117 10.6046125,2.53648945 10.7709477,2.21594771 C10.9372829,1.89540598 11.3319746,1.77039685 11.6525163,1.93673203 C14.9178254,3.62745795 16.6035968,7.33182343 15.7335256,10.9044657 C14.8634543,14.4771081 11.6631748,16.9915384 7.98611111,16.9915384 C4.30904745,16.9915384 1.10876792,14.4771081 0.238696657,10.9044657 C-0.631374611,7.33182343 1.05439686,3.62745795 4.31970588,1.93673203 C4.52706003,1.82913203 4.77606708,1.84032765 4.97292848,1.96610162 C5.16978988,2.09187558 5.28459771,2.31311983 5.27410496,2.54649378 C5.26361221,2.77986774 5.12941298,2.98991635 4.92205882,3.09751634 C2.19149221,4.51059909 0.78141835,7.60778221 1.50859106,10.5950915 C2.23576378,13.5824008 4.911571,15.6849961 7.98611111,15.6849961 C11.0606512,15.6849961 13.7364584,13.5824008 14.4636312,10.5950915 C15.1908039,7.60778221 13.78073,4.51059909 11.0501634,3.09751634 L11.0501634,3.09751634 Z M8.63970588,5.88235294 C8.63970588,6.24332337 8.34708154,6.53594771 7.98611111,6.53594771 C7.62514069,6.53594771 7.33251634,6.24332337 7.33251634,5.88235294 L7.33251634,0.653594771 C7.33251634,0.292624347 7.62514069,0 7.98611111,0 C8.34708154,0 8.63970588,0.292624347 8.63970588,0.653594771 L8.63970588,5.88235294 Z" id="形状"></path>
                </g>
            </g>
        </g>
    </g>
</svg>