<?xml version="1.0" encoding="UTF-8"?>
<svg width="21px" height="22px" viewBox="0 0 21 22" version="1.1" xmlns="http://www.w3.org/2000/svg" xmlns:xlink="http://www.w3.org/1999/xlink">
    <!-- Generator: Sketch 59 (86127) - https://sketch.com -->
    <title>编组 10</title>
    <desc>Created with Sketch.</desc>
    <defs>
        <linearGradient x1="50%" y1="6.58806918%" x2="50%" y2="50%" id="linearGradient-1">
            <stop stop-color="#FFFFFF" stop-opacity="0" offset="0%"></stop>
            <stop stop-color="#501BA2" offset="100%"></stop>
        </linearGradient>
    </defs>
    <g id="0526-支付钱包UI--桌面端" stroke="none" stroke-width="1" fill="none" fill-rule="evenodd">
        <g id="各种组件" transform="translate(-1331.000000, -7094.000000)">
            <g id="编组-10" transform="translate(1331.000000, 7094.000000)">
                <g id="编组-8">
                    <path d="M19.9967231,5.66802487 C20.1889577,5.66802487 20.3447947,5.82386182 20.3447947,6.01609643 L20.3447947,20.8286694 C20.3447947,21.020904 20.1889577,21.176741 19.9967231,21.176741 L0.976642995,21.176741 C0.784408377,21.176741 0.628571429,21.020904 0.628571429,20.8286694 L0.628571429,6.01609643 C0.628571429,5.82386182 0.784408377,5.66802487 0.976642995,5.66802487 L8.90157143,5.66802487 L8.90157143,8.42502487 L4.14532173,8.42512995 C3.97711644,8.42512995 3.83677811,8.54444262 3.80432174,8.70305296 L3.79725016,8.77320152 L3.79725016,18.0715643 C3.79725016,18.2397696 3.91656283,18.3801079 4.07517317,18.4125643 L4.14532173,18.4196359 L16.8280444,18.4196359 C16.9962496,18.4196359 17.136588,18.3003232 17.1690443,18.1417129 L17.1761159,18.0715643 L17.1761159,8.77320152 C17.1761159,8.5809669 17.020279,8.42512995 16.8280444,8.42512995 L12.2465714,8.42502487 L12.2465714,5.66802487 L19.9967231,5.66802487 Z" id="形状结合" fill="#501BA2"></path>
                    <rect id="矩形" fill="#501BA2" x="6.78989119" y="15.150497" width="7.39358371" height="1.20131007"></rect>
                    <path d="M11.546438,0.419047619 L11.5462491,10.4710476 L13.4412121,10.4720361 L10.5782306,13.2745396 L7.71524908,10.4720361 L9.60924908,10.4710476 L9.61002319,0.419047619 L11.546438,0.419047619 Z" id="形状结合" fill="url(#linearGradient-1)"></path>
                </g>
            </g>
        </g>
    </g>
</svg>