<?xml version="1.0" encoding="UTF-8"?>
<svg width="24px" height="20px" viewBox="0 0 24 20" version="1.1" xmlns="http://www.w3.org/2000/svg" xmlns:xlink="http://www.w3.org/1999/xlink">
    <!-- Generator: Sketch 59 (86127) - https://sketch.com -->
    <title>编组 9</title>
    <desc>Created with Sketch.</desc>
    <defs>
        <linearGradient x1="100%" y1="100%" x2="0%" y2="100%" id="linearGradient-1">
            <stop stop-color="#FFFFFF" stop-opacity="0" offset="0%"></stop>
            <stop stop-color="#501BA2" offset="100%"></stop>
        </linearGradient>
        <linearGradient x1="100%" y1="100%" x2="0%" y2="100%" id="linearGradient-2">
            <stop stop-color="#501BA2" offset="0%"></stop>
            <stop stop-color="#FFFFFF" stop-opacity="0" offset="100%"></stop>
        </linearGradient>
        <linearGradient x1="50%" y1="20.4362142%" x2="50%" y2="105.221541%" id="linearGradient-3">
            <stop stop-color="#501BA2" offset="0%"></stop>
            <stop stop-color="#FFFFFF" stop-opacity="0" offset="100%"></stop>
        </linearGradient>
    </defs>
    <g id="0526-支付钱包UI--桌面端" stroke="none" stroke-width="1" fill="none" fill-rule="evenodd">
        <g id="桌面端-导入钱包-我的" transform="translate(-1051.000000, -217.000000)">
            <g id="编组-30" transform="translate(406.000000, 141.000000)">
                <g id="编组-9" transform="translate(645.000000, 76.000000)">
                    <g id="编组">
                        <path d="M5.89417094,12.3855271 L5.89460817,15.9586316 C5.89460817,16.1185985 6.00807709,16.2520632 6.15891895,16.2829299 L6.22563175,16.2896552 L18.2574307,16.2896552 C18.4173976,16.2896552 18.5508623,16.1761863 18.581729,16.0253444 L18.5884543,15.9586316 L18.5881709,12.3855271 L21.5941709,12.3855271 L21.5948915,18.6739025 C21.5948915,18.8567218 21.4466872,19.0049261 21.2638679,19.0049261 L3.21919451,19.0049261 C3.03637524,19.0049261 2.88817094,18.8567218 2.88817094,18.6739025 L2.88817094,12.3855271 L5.89417094,12.3855271 Z M21.2638679,3.73152709 C21.4466872,3.73152709 21.5948915,3.8797314 21.5948915,4.06255067 L21.5941709,10.3495271 L18.5881709,10.3495271 L18.5884543,6.77782161 C18.5884543,6.59500233 18.44025,6.44679803 18.2574307,6.44679803 L14.2251709,6.44652709 L14.2251709,3.73152709 L21.2638679,3.73152709 Z M10.8241709,3.73152709 L10.8241709,6.44652709 L6.22563175,6.44679803 C6.06566488,6.44679803 5.9322001,6.56026695 5.90133339,6.71110881 L5.89460817,6.77782161 L5.89417094,10.3495271 L2.88817094,10.3495271 L2.88817094,4.06255067 C2.88817094,3.8797314 3.03637524,3.73152709 3.21919451,3.73152709 L10.8241709,3.73152709 Z" id="形状结合" fill="#501BA2"></path>
                        <rect id="矩形" fill="url(#linearGradient-1)" x="0.620689655" y="10.8874707" width="7.30452898" height="1"></rect>
                        <rect id="矩形复制-16" fill="url(#linearGradient-2)" x="16.5578438" y="10.8874707" width="7.30452898" height="1"></rect>
                        <rect id="矩形" fill="#501BA2" x="10.0333023" y="10.0336085" width="4.53496256" height="3.52463054"></rect>
                        <path d="M12.3245372,0.206896552 L15.0244664,2.94773477 L13.236608,2.94689655 L13.2376034,8.17451654 L11.4114711,8.17451654 L11.410608,2.94689655 L9.62460801,2.94773477 L12.3245372,0.206896552 Z" id="形状结合" fill="url(#linearGradient-3)"></path>
                    </g>
                </g>
            </g>
        </g>
    </g>
</svg>