<?xml version="1.0" encoding="UTF-8"?>
<svg width="41px" height="41px" viewBox="0 0 41 41" version="1.1" xmlns="http://www.w3.org/2000/svg" xmlns:xlink="http://www.w3.org/1999/xlink">
    <!-- Generator: Sketch 59 (86127) - https://sketch.com -->
    <title>编组复制 3备份 8</title>
    <desc>Created with Sketch.</desc>
    <defs>
        <linearGradient x1="6.2526286%" y1="5.55986015%" x2="89.3696478%" y2="100%" id="linearGradient-1">
            <stop stop-color="#9339F3" offset="0%"></stop>
            <stop stop-color="#7038FD" offset="100%"></stop>
        </linearGradient>
        <rect id="path-2" x="0" y="0" width="41" height="41"></rect>
    </defs>
    <g id="0526-支付钱包UI--桌面端" stroke="none" stroke-width="1" fill="none" fill-rule="evenodd">
        <g id="画板" transform="translate(-1619.000000, -8892.000000)">
            <g id="编组复制-3备份-8" transform="translate(1619.000000, 8892.000000)">
                <g id="编组复制-3备份-2">
                    <g id="编组复制-36">
                        <g id="编组复制">
                            <g id="编组-9">
                                <mask id="mask-3" fill="white">
                                    <use xlink:href="#path-2"></use>
                                </mask>
                                <use id="蒙版" fill="url(#linearGradient-1)" xlink:href="#path-2"></use>
                                <g id="编组-3复制" mask="url(#mask-3)">
                                    <g transform="translate(5.459627, 14.789884)" id="编组-2">
                                        <g transform="translate(0.035578, 0.021740)">
                                            <path d="M25.145,0 L19.3424658,7.01556533 L21.5146564,9.68856157 C21.9183056,10.1852913 22.6258562,10.2883439 23.1504174,9.94769037 L23.2598451,9.86788353 L23.3467348,9.78996993 L23.3467348,9.78996993 L23.4259356,9.70422792 L26.8204311,5.66387659 L29,7.50090575 L25.6055045,11.5412571 C25.440311,11.7378812 25.2570083,11.9184967 25.0580212,12.0807145 C23.3630025,13.4625228 20.8962559,13.2592519 19.4468458,11.6547322 L19.3053621,11.4896162 L17.4894658,9.25656533 L15.6385086,11.4965122 C15.5248066,11.6340091 15.4023112,11.7638384 15.2718323,11.885196 L15.0702276,12.0607782 C13.3750473,13.4423877 10.9083245,13.2388274 9.45910204,11.6341376 L9.31763772,11.4690051 L0,0 L3.671,0 L11.5271426,9.66820965 C11.9595617,10.2004708 12.7408999,10.2808476 13.2723103,9.84773633 L13.362701,9.76637948 L13.362701,9.76637948 L13.4447102,9.67655451 L15.6564658,7.00056533 L9.968,0 L13.641,0 L17.5094658,4.75956533 L21.446,0 L25.145,0 Z" id="形状结合" fill="#FFFFFF" fill-rule="nonzero"></path>
                                        </g>
                                    </g>
                                </g>
                            </g>
                        </g>
                    </g>
                </g>
            </g>
        </g>
    </g>
</svg>