<?xml version="1.0" encoding="UTF-8"?>
<svg width="16px" height="15px" viewBox="0 0 16 15" version="1.1" xmlns="http://www.w3.org/2000/svg" xmlns:xlink="http://www.w3.org/1999/xlink">
    <!-- Generator: Sketch 59 (86127) - https://sketch.com -->
    <title>编组 28</title>
    <desc>Created with Sketch.</desc>
    <g id="0526-支付钱包UI--桌面端" stroke="none" stroke-width="1" fill="none" fill-rule="evenodd">
        <g id="桌面端-导入钱包-我的" transform="translate(-1202.000000, -185.000000)" fill="#FFFFFF" fill-rule="nonzero">
            <g id="编组-28" transform="translate(1202.000000, 185.000000)">
                <g id="编组-27">
                    <g id="编组">
                        <path d="M12.387085,11.4852745 C13.2067599,11.4852745 13.8734993,10.8133047 13.8734993,9.98723535 L13.8734993,7.49040875 C13.8734993,6.6643216 13.2067599,5.99208538 12.387085,5.99208538 C11.5674278,5.99208538 10.9006884,6.6643216 10.9006884,7.49040875 L10.9006884,9.98723535 C10.9006884,10.813287 11.5674278,11.4852745 12.387085,11.4852745 Z M11.8916312,7.49040875 C11.8916312,7.2148628 12.1132079,6.9910683 12.3870674,6.9910683 C12.6599574,6.9910683 12.8825036,7.21488056 12.8825036,7.49040875 L12.8825036,9.98723535 C12.8825036,10.2622483 12.6599574,10.4865758 12.3870674,10.4865758 C12.1132079,10.4865758 11.8916312,10.2622483 11.8916312,9.98723535 L11.8916312,7.49040875 Z M1.98192091,4.49422394 L2.97286373,4.49422394 L2.97286373,12.9833669 L1.98192091,12.9833669 L1.98192091,4.49422394 Z" id="形状"></path>
                        <path d="M12.8825212,2.49679108 L12.8825212,0 L1.48639661,0 C0.666721763,0 0,0.671756545 0,1.4978437 L0,13.4827251 C0,14.30883 0.666721763,14.9807997 1.48639661,14.9807997 L15.8553849,14.9807997 L15.8553849,2.49679108 L12.8825212,2.49679108 Z M0.990960463,1.4978437 C0.990960463,1.22279517 1.21304828,0.998698663 1.48639661,0.998698663 L11.8916312,0.998698663 L11.8916312,2.49679108 L0.990960463,2.49679108 L0.990960463,1.4978437 Z M14.8644597,13.9821188 L1.48639661,13.9821188 C1.21303064,13.9821188 0.990960463,13.7577559 0.990960463,13.4827428 L0.990960463,3.49527655 L14.8644597,3.49527655 L14.8644597,13.9821188 Z" id="形状"></path>
                    </g>
                </g>
            </g>
        </g>
    </g>
</svg>