<?xml version="1.0" encoding="UTF-8"?>
<svg width="29px" height="34px" viewBox="0 0 29 34" version="1.1" xmlns="http://www.w3.org/2000/svg" xmlns:xlink="http://www.w3.org/1999/xlink">
    <!-- Generator: Sketch 59 (86127) - https://sketch.com -->
    <title>编组 5</title>
    <desc>Created with Sketch.</desc>
    <defs>
        <linearGradient x1="50%" y1="0%" x2="50%" y2="169.46319%" id="linearGradient-1">
            <stop stop-color="#FFFFFF" offset="0%"></stop>
            <stop stop-color="#F4B539" offset="100%"></stop>
        </linearGradient>
        <linearGradient x1="50%" y1="0%" x2="50%" y2="134.275731%" id="linearGradient-2">
            <stop stop-color="#FFFFFF" offset="0%"></stop>
            <stop stop-color="#F4B539" offset="100%"></stop>
        </linearGradient>
    </defs>
    <g id="0526-支付钱包UI--桌面端" stroke="none" stroke-width="1" fill="none" fill-rule="evenodd">
        <g id="桌面端-导入钱包-我的备份-2" transform="translate(-794.000000, -603.000000)">
            <g id="编组-25" transform="translate(406.000000, 593.000000)">
                <g id="编组-24" transform="translate(389.000000, 10.000000)">
                    <g id="编组-5">
                        <path d="M13.474633,0.000776478144 C13.6061971,0.00242065704 13.7122813,0.00321343962 13.9519011,0.00460301939 L14.0484501,0.00517147672 C14.6721387,0.00895406665 15.0198397,0.0166433428 15.4114081,0.0413691266 C16.7257687,0.124397911 18.0345678,0.445478171 19.4087123,0.988360813 C20.4122218,1.38477881 21.3215287,1.84295785 22.1505685,2.38220132 C22.5741456,2.65769982 23.0652716,2.82795837 23.6924837,2.92973559 C24.3672434,3.03926885 24.9005803,3.06111811 25.3960237,2.98481209 C25.4980664,2.9690693 25.604679,2.94513587 25.7137952,2.91362051 C26.8688131,2.57970838 27.9425654,3.37491804 27.947111,4.57524997 L27.9478872,4.82723559 C27.9485729,5.11962049 27.9485194,5.4272232 27.9480426,5.9685696 L27.9479337,6.09310319 L27.9479337,6.09310319 L27.9479432,7.18138362 C27.9481725,7.47530476 27.9485599,7.79880487 27.9491194,8.1925183 L27.9496689,8.57007757 C27.9530173,10.8439165 27.9526203,11.8549678 27.9450456,13.1198037 C27.9256298,16.3638433 27.1698753,19.473456 25.6993391,22.4251466 C23.2876842,27.2658592 19.6457978,30.9443125 14.8064532,33.4381892 C14.2371462,33.7315063 13.6420868,33.7333601 13.0745577,33.4371201 C7.42513787,30.4897872 3.48685424,26.0396833 1.30429366,20.1108029 C0.653114249,18.3419533 0.261118256,16.52283 0.137522285,14.6725183 C0.0928798577,14.0040794 0.0772427678,13.4061178 0.0661512205,12.3267867 L0.0644605044,12.1594491 C0.060475746,11.7616611 0.0584457705,11.5851649 0.0549421413,11.365569 C0.0494416786,11.0211717 0.0485460581,10.7390647 0.0503209636,10.2017067 L0.00156387627,10.2017067 L0.0010035654,5.2238843 C0.000734560801,5.01252025 0.000402500145,4.80700964 8.82849349e-13,4.6036557 C-0.000945936912,4.1051725 0.156881456,3.6635865 0.517278912,3.31742602 C0.963216586,2.88910035 1.54585559,2.71395418 2.14705122,2.89489526 C2.72206532,3.06798914 3.34034246,3.06353159 4.21849518,2.91118269 C4.82894101,2.80525685 5.41142944,2.59290512 5.98460795,2.27054591 C7.53648226,1.39764433 9.02237815,0.768165034 10.5419909,0.375873175 C11.5436745,0.117284462 12.5138408,-0.0112831584 13.474633,0.000776478144 Z M13.128,1.709 L13.4531145,1.70632735 C12.6516744,1.69626786 11.831767,1.804923 10.9713836,2.02703447 C9.60727707,2.379182 8.2561972,2.95154836 6.8261915,3.75590101 C6.08653036,4.1718911 5.31962966,4.4514721 4.51220011,4.59157897 C3.50105613,4.76700025 2.69642143,4.7888346 1.90280002,4.59593149 L1.707,4.542 L1.70544699,4.54540955 C1.70996855,4.54106661 1.71183461,4.53584553 1.71195759,4.60035922 C1.71256055,4.90591681 1.7130055,5.21629286 1.7133171,5.54397707 L1.71363582,8.49602106 L1.71363582,8.49602106 L1.76481029,8.49602106 L1.76433436,9.64590934 C1.7642254,9.68276799 1.76409668,9.72171497 1.76394715,9.76355407 L1.76313714,9.97286615 C1.76037556,10.6585584 1.76067022,10.9620209 1.76668218,11.3384441 C1.77025756,11.5625374 1.77231332,11.7412753 1.77633177,12.1424262 L1.77801802,12.3093236 C1.78879718,13.3582567 1.80379618,13.9318175 1.84570064,14.5592604 C1.95837731,16.2461031 2.3160009,17.9057155 2.9115492,19.52345 C4.85033777,24.7901287 8.25153828,28.7795564 13.1277964,31.5244819 L13.1198487,26.5572674 L14.8318026,26.5542602 L14.8408031,31.48116 C18.948298,29.1712972 22.0549234,25.9039643 24.1659028,21.6667723 C25.5216299,18.9455288 26.2152729,16.0914789 26.2331196,13.1096295 C26.2406605,11.8504261 26.2410564,10.8421925 26.2377142,8.57258014 L26.2371645,8.19493329 C26.2366045,7.8007976 26.2362166,7.47688859 26.235987,7.18250285 L26.2359777,6.09171029 C26.236008,6.05648513 26.2360438,6.0158432 26.2360867,5.96707289 L26.236183,4.9574912 C26.2359788,4.8292884 26.2356482,4.70971366 26.2351666,4.58166343 C26.2349234,4.51745022 26.2558537,4.53295097 26.1906516,4.55180066 C26.0127793,4.60317445 25.8347574,4.64313854 25.6577711,4.67044332 C24.9590197,4.778062 24.2549664,4.74921899 23.4172409,4.61323159 C22.5705898,4.47584618 21.8578226,4.22875134 21.2147344,3.81048082 C20.4868196,3.33701342 19.6792044,2.93007451 18.7777082,2.57395495 C17.560988,2.09326589 16.4246066,1.81448388 15.3031042,1.74363805 L15.0412555,1.72970123 C14.9768924,1.72692153 14.9109731,1.72453987 14.8417254,1.72248817 L14.8318002,4.85360114 L13.1198512,4.84855426 L13.128,1.709 Z M1.68628348,4.53190947 L1.66484851,4.53155727 L1.66484851,4.53155727 L1.707,4.542 C1.71052489,4.53129114 1.69977346,4.53167963 1.68628348,4.53190947 Z" id="形状结合" fill="url(#linearGradient-1)" fill-rule="nonzero"></path>
                        <path d="M20.249829,13.7708398 L19.1137266,13.7708398 L19.1137266,11.5565605 C19.1137266,8.77888479 16.8293493,6.56460555 13.9742157,6.56460555 C11.1204346,6.56460555 8.83470479,8.77888479 8.83470479,11.5565605 L8.83470479,13.7708398 L7.69860237,13.7708398 C7.07645105,13.7708398 6.56249996,14.268725 6.56249996,14.8714283 L6.56249996,23.7416475 C6.56249996,24.3443507 7.07645105,24.842236 7.69860237,24.842236 L20.249829,24.842236 C20.8855054,24.842236 21.3994565,24.3443507 21.3994565,23.7416475 L21.3994565,14.8714283 C21.3994565,14.268725 20.8855054,13.7708398 20.249829,13.7708398 L20.249829,13.7708398 Z M17.396048,13.7708398 L10.5523834,13.7708398 L10.5523834,11.5565605 C10.5523834,9.72224636 12.0942367,8.22859054 13.9742157,8.22859054 C15.8662272,8.23580661 17.396048,9.72367806 17.396048,11.5565605 L17.396048,13.7708398 Z" id="形状" fill="url(#linearGradient-2)" fill-rule="nonzero"></path>
                        <path d="M21.3994565,23.7416475 C21.3994565,24.3443507 20.8855054,24.842236 20.249829,24.842236 L20.249829,24.842236 L8.04809066,24.8418322 C9.07358362,19.1338129 14.0819954,14.801564 20.1059782,14.801564 C20.5430917,14.801564 20.9748579,14.8243745 21.4001432,14.8688659 Z" id="形状结合" fill="#FFCC58" fill-rule="nonzero"></path>
                        <ellipse id="椭圆形复制-3" stroke="#F0AD15" stroke-width="1.14130435" cx="15.5134859" cy="20.1278815" rx="2.2826087" ry="2.2847038"></ellipse>
                        <ellipse id="椭圆形" stroke="#FFFFFF" stroke-width="1.14130435" cx="13.410326" cy="19.1304765" rx="2.2826087" ry="2.2847038"></ellipse>
                    </g>
                </g>
            </g>
        </g>
    </g>
</svg>