<?xml version="1.0" encoding="UTF-8"?>
<svg width="14px" height="14px" viewBox="0 0 14 14" version="1.1" xmlns="http://www.w3.org/2000/svg" xmlns:xlink="http://www.w3.org/1999/xlink">
    <!-- Generator: Sketch 54.1 (76490) - https://sketchapp.com -->
    <title>xuanze</title>
    <desc>Created with Sketch.</desc>
    <g id="0618-激活钱包需求" stroke="none" stroke-width="1" fill="none" fill-rule="evenodd">
        <g id="桌面端-创建钱包" transform="translate(-737.000000, -742.000000)" fill="#999999" fill-rule="nonzero">
            <g id="xuanze" transform="translate(737.000000, 742.000000)">
                <path d="M7,0 C3.13213213,0 0,3.13213213 0,7 C0,10.8678679 3.13213213,14 7,14 C10.8678679,14 14,10.8678679 14,7 C14,3.13213213 10.8678679,0 7,0 Z M7,12.6476476 C3.88188188,12.6476476 1.35235235,10.1181181 1.35235235,7 C1.35235235,3.88188188 3.88188188,1.35235235 7,1.35235235 C10.1181181,1.35235235 12.6476476,3.88188188 12.6476476,7 C12.6476476,10.1181181 10.1181181,12.6476476 7,12.6476476 L7,12.6476476 Z" id="形状"></path>
            </g>
        </g>
    </g>
</svg>